<svg width="457" height="257" viewBox="0 0 457 257" fill="none" xmlns="http://www.w3.org/2000/svg">
<path d="M0 0H35.6069V11.1049H0V0Z" fill="#E66E00" fill-opacity="0.5"/>
<path d="M44.9772 0H175.223V11.1049H44.9772V0Z" fill="#E66E00" fill-opacity="0.5"/>
<path d="M35.6069 83.2871H93.7023V93.5988H35.6069V83.2871Z" fill="#E66E00" fill-opacity="0.5"/>
<path d="M0 246.688H93.7023V257H0V246.688Z" fill="#E66E00" fill-opacity="0.5"/>
<path d="M35.6069 111.05H59.9695V121.361H35.6069V111.05Z" fill="#E66E00" fill-opacity="0.5"/>
<path d="M106.82 83.2871H256.744V93.5988H106.82V83.2871Z" fill="#E66E00" fill-opacity="0.5"/>
<path d="M97.4504 165.781H242.689V176.093H97.4504V165.781Z" fill="#E66E00" fill-opacity="0.5"/>
<path d="M268.926 165.781H376.683V176.093H268.926V165.781Z" fill="#E66E00" fill-opacity="0.5"/>
<path d="M273.611 83.2871H382.305V93.5988H273.611V83.2871Z" fill="#E66E00" fill-opacity="0.5"/>
<path d="M403.857 83.2871H470.386V93.5988H403.857V83.2871Z" fill="#E66E00" fill-opacity="0.5"/>
<path d="M35.6069 27.7617H121.813V38.0734H35.6069V27.7617Z" fill="#E66E00" fill-opacity="0.5"/>
<path d="M35.6069 55.5249H157.42V65.8366H35.6069V55.5249Z" fill="#E66E00" fill-opacity="0.5"/>
<path d="M68.4026 111.05H208.019V121.361H68.4026V111.05Z" fill="#E66E00" fill-opacity="0.5"/>
<path d="M68.4026 138.019H113.38V149.123H68.4026V138.019Z" fill="#E66E00" fill-opacity="0.5"/>
<path d="M68.4026 193.543H118.065V203.855H68.4026V193.543Z" fill="#E66E00" fill-opacity="0.5"/>
<path d="M128.372 138.019H400.109V149.123H128.372V138.019Z" fill="#E66E00" fill-opacity="0.5"/>
<path d="M236.13 111.05H327.958V121.361H236.13V111.05Z" fill="#E66E00" fill-opacity="0.5"/>
<path d="M170.538 55.5249H292.351V65.8366H170.538V55.5249Z" fill="#E66E00" fill-opacity="0.5"/>
<path d="M299.847 55.5249H400.109V65.8366H299.847V55.5249Z" fill="#E66E00" fill-opacity="0.5"/>
<path d="M436.653 55.5249H491V65.8366H436.653V55.5249Z" fill="#E66E00" fill-opacity="0.5"/>
<path d="M149.924 27.7617H281.107V38.0734H149.924V27.7617Z" fill="#E66E00" fill-opacity="0.5"/>
</svg>
