<svg width="292" height="535" viewBox="0 0 292 535" fill="none" xmlns="http://www.w3.org/2000/svg">
<path d="M63 244.5C63 247.541 65.7708 250 69.1976 250H202.802C206.229 250 209 247.541 209 244.5C209 241.459 206.229 239 202.802 239H69.1976C65.7708 239 63 241.459 63 244.5Z" fill="#FF731D" fill-opacity="0.5"/>
<path d="M6.23874 275H114.761C118.211 275 121 272.319 121 269.002C121 265.686 118.211 263 114.761 263H6.23874C2.79413 263 0 265.686 0 269.002C0 272.319 2.79413 275 6.23874 275Z" fill="#FF731D" fill-opacity="0.5"/>
<path d="M6.21263 298H133.787C137.218 298 140 295.314 140 291.998C140 288.681 137.218 286 133.787 286H6.21263C2.78243 286 0 288.681 0 291.998C0 295.314 2.78243 298 6.21263 298Z" fill="#FF731D" fill-opacity="0.5"/>
<path d="M51 315.998C51 319.314 53.7598 322 57.1731 322H221.827C225.235 322 228 319.314 228 315.998C228 312.681 225.235 310 221.827 310H57.1731C53.7598 310 51 312.681 51 315.998Z" fill="#FF731D" fill-opacity="0.5"/>
<path d="M190.803 334H38.1967C34.7704 334 32 336.686 32 340.002C32 343.319 34.7704 346 38.1967 346H190.803C194.23 346 197 343.319 197 340.002C197 336.686 194.23 334 190.803 334Z" fill="#FF731D" fill-opacity="0.5"/>
<path d="M6.2129 369H158.787C162.222 369 165 366.314 165 363.002C165 359.686 162.222 357 158.787 357H6.2129C2.78255 357 0 359.686 0 363.002C0 366.314 2.78255 369 6.2129 369Z" fill="#FF731D" fill-opacity="0.5"/>
<path d="M82 387.498C82 390.538 84.7794 393 88.2167 393H196.783C200.221 393 203 390.538 203 387.498C203 384.458 200.221 382 196.783 382H88.2167C84.7794 382 82 384.458 82 387.498Z" fill="#FF731D" fill-opacity="0.5"/>
<path d="M94.2944 416H158.706C162.186 416 165 413.542 165 410.502C165 407.462 162.186 405 158.706 405H94.2944C90.8191 405 88 407.462 88 410.502C88 413.542 90.8191 416 94.2944 416Z" fill="#FF731D" fill-opacity="0.5"/>
<path d="M6.2129 441H158.787C162.222 441 165 438.319 165 435.002C165 431.686 162.222 429 158.787 429H6.2129C2.78255 429 0 431.686 0 435.002C0 438.319 2.78255 441 6.2129 441Z" fill="#FF731D" fill-opacity="0.5"/>
<path d="M6.22681 464H152.773C156.211 464 159 461.314 159 457.998C159 454.681 156.211 452 152.773 452H6.22681C2.78878 452 0 454.681 0 457.998C0 461.314 2.78878 464 6.22681 464Z" fill="#FF731D" fill-opacity="0.5"/>
<path d="M259.845 476H127.155C123.752 476 121 478.682 121 482C121 485.318 123.752 488 127.155 488H259.845C263.248 488 266 485.318 266 482C266 478.682 263.248 476 259.845 476Z" fill="#FF731D" fill-opacity="0.5"/>
<path d="M6.2129 512H158.787C162.222 512 165 509.542 165 506.502C165 503.462 162.222 501 158.787 501H6.2129C2.78255 501 0 503.462 0 506.502C0 509.542 2.78255 512 6.2129 512Z" fill="#FF731D" fill-opacity="0.5"/>
<path d="M240.807 524H107.198C103.771 524 101 526.458 101 529.498C101 532.538 103.771 535 107.198 535H240.807C244.229 535 247 532.538 247 529.498C247 526.458 244.229 524 240.807 524Z" fill="#FF731D" fill-opacity="0.5"/>
<path d="M147.161 10H285.839C289.246 10 292 7.76155 292 4.99803C292 2.2345 289.246 0 285.839 0H147.161C143.754 0 141 2.2345 141 4.99803C141 7.76155 143.754 10 147.161 10Z" fill="#FF731D" fill-opacity="0.5"/>
<path d="M89.1978 32H222.807C226.229 32 229 29.5411 229 26.5C229 23.4589 226.229 21 222.807 21H89.1978C85.7709 21 83 23.4589 83 26.5C83 29.5411 85.7709 32 89.1978 32Z" fill="#FF731D" fill-opacity="0.5"/>
<path d="M285.813 43H178.187C174.771 43 172 45.4623 172 48.5022C172 51.542 174.771 54 178.187 54H285.813C289.234 54 292 51.542 292 48.5022C292 45.4623 289.234 43 285.813 43Z" fill="#FF731D" fill-opacity="0.5"/>
<path d="M285.773 65H139.227C135.784 65 133 67.2345 133 69.998C133 72.7615 135.784 75 139.227 75H285.773C289.216 75 292 72.7615 292 69.998C292 67.2345 289.216 65 285.773 65Z" fill="#FF731D" fill-opacity="0.5"/>
<path d="M70.1732 97H234.832C238.24 97 241 94.5377 241 91.4978C241 88.458 238.24 86 234.832 86H70.1732C66.7599 86 64 88.458 64 91.4978C64 94.5377 66.7599 97 70.1732 97Z" fill="#FF731D" fill-opacity="0.5"/>
<path d="M253.803 119C257.23 119 260 116.542 260 113.502C260 110.462 257.23 108 253.803 108H101.197C97.7705 108 95 110.462 95 113.502C95 116.542 97.7705 119 101.197 119H253.803Z" fill="#FF731D" fill-opacity="0.5"/>
<path d="M285.787 129H133.213C129.783 129 127 131.462 127 134.502C127 137.538 129.783 140 133.213 140H285.787C289.222 140 292 137.538 292 134.502C292 131.462 289.222 129 285.787 129Z" fill="#FF731D" fill-opacity="0.5"/>
<path d="M89 156.998C89 159.762 91.7792 162 95.2165 162H203.784C207.216 162 210 159.762 210 156.998C210 154.235 207.216 152 203.784 152H95.2165C91.7792 152 89 154.235 89 156.998Z" fill="#FF731D" fill-opacity="0.5"/>
</svg>