<svg width="628" height="516" viewBox="0 0 628 516" fill="none" xmlns="http://www.w3.org/2000/svg">
<path d="M-25.3004 81.9426H85.905C89.0565 81.9426 91.6046 79.4029 91.6046 76.2675C91.6046 73.1321 89.0565 70.5969 85.905 70.5969H-25.3004C-28.4473 70.5969 -31 73.1321 -31 76.2675C-31 79.4029 -28.4473 81.9426 -25.3004 81.9426Z" fill="#FF731D" fill-opacity="0.5"/>
<path d="M27.0184 98.9607C27.0184 102.097 29.553 104.634 32.6876 104.634H154.901C158.035 104.634 160.57 102.097 160.57 98.9607C160.57 95.824 158.035 93.2878 154.901 93.2878H32.6876C29.553 93.2878 27.0184 95.824 27.0184 98.9607Z" fill="#FF731D" fill-opacity="0.5"/>
<path d="M-25.2994 128.585H73.8625C77.0145 128.585 79.5631 126.05 79.5631 122.915C79.5631 119.779 77.0145 117.24 73.8625 117.24H-25.2994C-28.4469 117.24 -31 119.779 -31 122.915C-31 126.05 -28.4469 128.585 -25.2994 128.585Z" fill="#FF731D" fill-opacity="0.5"/>
<path d="M-25.3164 151.277H91.3945C94.5325 151.277 97.078 148.738 97.078 145.602C97.078 142.467 94.5325 139.932 91.3945 139.932H-25.3164C-28.4545 139.932 -31 142.467 -31 145.602C-31 148.738 -28.4545 151.277 -25.3164 151.277Z" fill="#FF731D" fill-opacity="0.5"/>
<path d="M16.0714 168.924C16.0714 172.408 18.5976 175.23 21.7218 175.23H172.434C175.554 175.23 178.085 172.408 178.085 168.924C178.085 165.44 175.554 162.624 172.434 162.624H21.7218C18.5976 162.624 16.0714 165.44 16.0714 168.924Z" fill="#FF731D" fill-opacity="0.5"/>
<path d="M143.95 186.575H4.22997C1.09303 186.575 -1.44342 189.115 -1.44342 192.251C-1.44342 195.386 1.09303 197.921 4.22997 197.921H143.95C147.087 197.921 149.623 195.386 149.623 192.251C149.623 189.115 147.087 186.575 143.95 186.575Z" fill="#FF731D" fill-opacity="0.5"/>
<path d="M-25.3118 220.612H114.378C117.523 220.612 120.066 218.072 120.066 214.941C120.066 211.806 117.523 209.266 114.378 209.266H-25.3118C-28.4524 209.266 -31 211.806 -31 214.941C-31 218.072 -28.4524 220.612 -25.3118 220.612Z" fill="#FF731D" fill-opacity="0.5"/>
<path d="M44.5333 238.888C44.5333 242.023 47.0729 244.563 50.2138 244.563H149.416C152.557 244.563 155.096 242.023 155.096 238.888C155.096 235.752 152.557 233.217 149.416 233.217H50.2138C47.0729 233.217 44.5333 235.752 44.5333 238.888Z" fill="#FF731D" fill-opacity="0.5"/>
<path d="M55.7339 267.255H114.339C117.506 267.255 120.067 264.72 120.067 261.584C120.067 258.449 117.506 255.909 114.339 255.909H55.7339C52.5718 255.909 50.0068 258.449 50.0068 261.584C50.0068 264.72 52.5718 267.255 55.7339 267.255Z" fill="#FF731D" fill-opacity="0.5"/>
<path d="M-25.3118 291.208H114.378C117.523 291.208 120.066 288.673 120.066 285.537C120.066 282.402 117.523 279.862 114.378 279.862H-25.3118C-28.4524 279.862 -31 282.402 -31 285.537C-31 288.673 -28.4524 291.208 -25.3118 291.208Z" fill="#FF731D" fill-opacity="0.5"/>
<path d="M-25.2982 313.899H108.891C112.039 313.899 114.593 311.359 114.593 308.224C114.593 305.088 112.039 302.553 108.891 302.553H-25.2982C-28.4464 302.553 -31 305.088 -31 308.224C-31 311.359 -28.4464 313.899 -25.2982 313.899Z" fill="#FF731D" fill-opacity="0.5"/>
<path d="M207.445 325.244H85.2322C82.0977 325.244 79.5631 328.062 79.5631 331.547C79.5631 335.032 82.0977 337.85 85.2322 337.85H207.445C210.58 337.85 213.115 335.032 213.115 331.547C213.115 328.062 210.58 325.244 207.445 325.244Z" fill="#FF731D" fill-opacity="0.5"/>
<path d="M-25.3118 360.542H114.378C117.523 360.542 120.066 358.007 120.066 354.872C120.066 351.736 117.523 349.197 114.378 349.197H-25.3118C-28.4524 349.197 -31 351.736 -31 354.872C-31 358.007 -28.4524 360.542 -25.3118 360.542Z" fill="#FF731D" fill-opacity="0.5"/>
<path d="M189.935 371.886H67.7174C64.5827 371.886 62.048 374.422 62.048 377.557C62.048 380.692 64.5827 383.232 67.7174 383.232H189.935C193.065 383.232 195.599 380.692 195.599 377.557C195.599 374.422 193.065 371.886 189.935 371.886Z" fill="#FF731D" fill-opacity="0.5"/>
<path d="M494.647 81.9426H622.328C625.464 81.9426 628 79.4029 628 76.2675C628 73.1321 625.464 70.5969 622.328 70.5969H494.647C491.511 70.5969 488.975 73.1321 488.975 76.2675C488.975 79.4029 491.511 81.9426 494.647 81.9426Z" fill="#FF731D" fill-opacity="0.5"/>
<path d="M442.099 104.634H564.317C567.447 104.634 569.982 102.097 569.982 98.9607C569.982 95.824 567.447 93.2878 564.317 93.2878H442.099C438.965 93.2878 436.43 95.824 436.43 98.9607C436.43 102.097 438.965 104.634 442.099 104.634Z" fill="#FF731D" fill-opacity="0.5"/>
<path d="M622.299 117.24H523.137C519.99 117.24 517.437 119.779 517.437 122.915C517.437 126.05 519.99 128.585 523.137 128.585H622.299C625.451 128.585 628 126.05 628 122.915C628 119.779 625.451 117.24 622.299 117.24Z" fill="#FF731D" fill-opacity="0.5"/>
<path d="M622.298 139.932H488.109C484.956 139.932 482.407 142.467 482.407 145.602C482.407 148.738 484.956 151.277 488.109 151.277H622.298C625.451 151.277 628 148.738 628 145.602C628 142.467 625.451 139.932 622.298 139.932Z" fill="#FF731D" fill-opacity="0.5"/>
<path d="M424.566 175.23H575.282C578.402 175.23 580.928 172.408 580.928 168.924C580.928 165.44 578.402 162.624 575.282 162.624H424.566C421.441 162.624 418.915 165.44 418.915 168.924C418.915 172.408 421.441 175.23 424.566 175.23Z" fill="#FF731D" fill-opacity="0.5"/>
<path d="M592.77 197.921C595.907 197.921 598.443 195.386 598.443 192.251C598.443 189.115 595.907 186.575 592.77 186.575H453.051C449.913 186.575 447.377 189.115 447.377 192.251C447.377 195.386 449.913 197.921 453.051 197.921H592.77Z" fill="#FF731D" fill-opacity="0.5"/>
<path d="M622.312 209.266H482.622C479.481 209.266 476.934 211.806 476.934 214.941C476.934 218.072 479.481 220.612 482.622 220.612H622.312C625.457 220.612 628 218.072 628 214.941C628 211.806 625.457 209.266 622.312 209.266Z" fill="#FF731D" fill-opacity="0.5"/>
<path d="M441.903 238.888C441.903 242.023 444.443 244.563 447.584 244.563H546.786C549.923 244.563 552.467 242.023 552.467 238.888C552.467 235.752 549.923 233.217 546.786 233.217H447.584C444.443 233.217 441.903 235.752 441.903 238.888Z" fill="#FF731D" fill-opacity="0.5"/>
<path d="M482.661 255.909C479.499 255.909 476.934 258.449 476.934 261.584C476.934 264.72 479.499 267.255 482.661 267.255H541.266C544.433 267.255 546.993 264.72 546.993 261.584C546.993 258.449 544.433 255.909 541.266 255.909H482.661Z" fill="#FF731D" fill-opacity="0.5"/>
<path d="M622.312 279.862H482.622C479.481 279.862 476.934 282.402 476.934 285.537C476.934 288.673 479.481 291.208 482.622 291.208H622.312C625.457 291.208 628 288.673 628 285.537C628 282.402 625.457 279.862 622.312 279.862Z" fill="#FF731D" fill-opacity="0.5"/>
<path d="M622.298 302.553H488.109C484.956 302.553 482.407 305.088 482.407 308.224C482.407 311.359 484.956 313.899 488.109 313.899H622.298C625.451 313.899 628 311.359 628 308.224C628 305.088 625.451 302.553 622.298 302.553Z" fill="#FF731D" fill-opacity="0.5"/>
<path d="M517.437 331.547C517.437 328.062 514.902 325.244 511.768 325.244H389.554C386.424 325.244 383.885 328.062 383.885 331.547C383.885 335.032 386.424 337.85 389.554 337.85H511.768C514.902 337.85 517.437 335.032 517.437 331.547Z" fill="#FF731D" fill-opacity="0.5"/>
<path d="M622.312 349.197H482.622C479.481 349.197 476.934 351.736 476.934 354.872C476.934 358.007 479.481 360.542 482.622 360.542H622.312C625.457 360.542 628 358.007 628 354.872C628 351.736 625.457 349.197 622.312 349.197Z" fill="#FF731D" fill-opacity="0.5"/>
<path d="M529.283 371.886H407.069C403.935 371.886 401.4 374.422 401.4 377.557C401.4 380.692 403.935 383.232 407.069 383.232H529.283C532.417 383.232 534.952 380.692 534.952 377.557C534.952 374.422 532.417 371.886 529.283 371.886Z" fill="#FF731D" fill-opacity="0.5"/>
<path d="M605.012 6.30067C605.012 6.71375 604.977 7.12683 604.903 7.52995C604.834 7.93805 604.731 8.33122 604.592 8.71444C604.454 9.09765 604.285 9.46096 604.086 9.80436C603.887 10.1478 603.663 10.4663 603.408 10.7599C603.152 11.0535 602.876 11.3123 602.577 11.5413C602.279 11.7702 601.964 11.9643 601.631 12.1236C601.298 12.2828 600.956 12.4023 600.606 12.4819C600.251 12.5665 599.897 12.6063 599.538 12.6063C599.179 12.6063 598.82 12.5665 598.47 12.4819C598.116 12.4023 597.774 12.2828 597.441 12.1236C597.108 11.9643 596.793 11.7702 596.494 11.5413C596.196 11.3123 595.919 11.0535 595.669 10.7599C595.414 10.4663 595.184 10.1478 594.986 9.80436C594.787 9.46096 594.618 9.09765 594.48 8.71444C594.341 8.33122 594.238 7.93805 594.168 7.52995C594.099 7.12683 594.065 6.71375 594.065 6.30067C594.065 5.88759 594.099 5.47949 594.168 5.07139C594.238 4.66827 594.341 4.27012 594.48 3.89188C594.618 3.50867 594.787 3.14536 594.986 2.80196C595.184 2.45855 595.414 2.14004 595.669 1.84641C595.919 1.55277 596.196 1.289 596.494 1.06007C596.793 0.831132 597.108 0.637035 597.441 0.477776C597.774 0.318517 598.116 0.199073 598.47 0.119444C598.82 0.0398147 599.179 0 599.538 0C599.897 0 600.251 0.0398147 600.606 0.119444C600.956 0.199073 601.298 0.318517 601.631 0.477776C601.964 0.637035 602.279 0.831132 602.577 1.06007C602.876 1.289 603.152 1.55277 603.408 1.84641C603.663 2.14004 603.887 2.45855 604.086 2.80196C604.285 3.14536 604.454 3.50867 604.592 3.89188C604.731 4.27012 604.834 4.66827 604.903 5.07139C604.977 5.47949 605.012 5.88759 605.012 6.30067Z" fill="#FF731D" fill-opacity="0.5"/>
<path d="M582.023 6.30067C582.023 6.71375 581.989 7.12683 581.919 7.52995C581.846 7.93805 581.742 8.33122 581.604 8.71444C581.47 9.09765 581.301 9.46096 581.098 9.80436C580.899 10.1478 580.674 10.4663 580.419 10.7599C580.164 11.0535 579.887 11.3123 579.589 11.5413C579.291 11.7702 578.975 11.9643 578.642 12.1236C578.314 12.2828 577.968 12.4023 577.618 12.4819C577.263 12.5665 576.909 12.6063 576.55 12.6063C576.191 12.6063 575.832 12.5665 575.482 12.4819C575.127 12.4023 574.786 12.2828 574.453 12.1236C574.124 11.9643 573.809 11.7702 573.51 11.5413C573.208 11.3123 572.935 11.0535 572.68 10.7599C572.425 10.4663 572.196 10.1478 571.997 9.80436C571.798 9.46096 571.63 9.09765 571.491 8.71444C571.353 8.33122 571.249 7.93805 571.18 7.52995C571.111 7.12683 571.076 6.71375 571.076 6.30067C571.076 5.88759 571.111 5.47949 571.18 5.07139C571.249 4.66827 571.353 4.27012 571.491 3.89188C571.63 3.50867 571.798 3.14536 571.997 2.80196C572.196 2.45855 572.425 2.14004 572.68 1.84641C572.935 1.55277 573.208 1.289 573.51 1.06007C573.809 0.831132 574.124 0.637035 574.453 0.477776C574.786 0.318517 575.127 0.199073 575.482 0.119444C575.832 0.0398147 576.191 0 576.55 0C576.909 0 577.263 0.0398147 577.618 0.119444C577.968 0.199073 578.314 0.318517 578.642 0.477776C578.975 0.637035 579.291 0.831132 579.589 1.06007C579.887 1.289 580.164 1.55277 580.419 1.84641C580.674 2.14004 580.899 2.45855 581.098 2.80196C581.301 3.14536 581.47 3.50867 581.604 3.89188C581.742 4.27012 581.846 4.66827 581.919 5.07139C581.989 5.47949 582.023 5.88759 582.023 6.30067Z" fill="#FF731D" fill-opacity="0.5"/>
<path d="M560.13 6.30067C560.13 6.71375 560.091 7.12683 560.015 7.52995C559.939 7.93805 559.825 8.33122 559.673 8.71444C559.521 9.09765 559.335 9.46096 559.117 9.80436C558.898 10.1478 558.646 10.4663 558.365 10.7599C558.085 11.0535 557.785 11.3123 557.452 11.5413C557.124 11.7702 556.777 11.9643 556.415 12.1236C556.049 12.2828 555.673 12.4023 555.283 12.4819C554.898 12.5665 554.504 12.6063 554.109 12.6063C553.714 12.6063 553.324 12.5665 552.934 12.4819C552.549 12.4023 552.168 12.2828 551.807 12.1236C551.441 11.9643 551.094 11.7702 550.765 11.5413C550.437 11.3123 550.133 11.0535 549.852 10.7599C549.572 10.4663 549.325 10.1478 549.106 9.80436C548.882 9.46096 548.697 9.09765 548.549 8.71444C548.397 8.33122 548.283 7.93805 548.202 7.52995C548.126 7.12683 548.088 6.71375 548.088 6.30067C548.088 5.88759 548.126 5.47949 548.202 5.07139C548.283 4.66827 548.397 4.27012 548.549 3.89188C548.697 3.50867 548.882 3.14536 549.106 2.80196C549.325 2.45855 549.572 2.14004 549.852 1.84641C550.133 1.55277 550.437 1.289 550.765 1.06007C551.094 0.831132 551.441 0.637035 551.807 0.477776C552.168 0.318517 552.549 0.199073 552.934 0.119444C553.324 0.0398147 553.714 0 554.109 0C554.504 0 554.898 0.0398147 555.283 0.119444C555.673 0.199073 556.049 0.318517 556.415 0.477776C556.777 0.637035 557.124 0.831132 557.452 1.06007C557.785 1.289 558.085 1.55277 558.365 1.84641C558.646 2.14004 558.898 2.45855 559.117 2.80196C559.335 3.14536 559.521 3.50867 559.673 3.89188C559.825 4.27012 559.939 4.66827 560.015 5.07139C560.091 5.47949 560.13 5.88759 560.13 6.30067Z" fill="#FF731D" fill-opacity="0.5"/>
<path d="M274.141 296.025C274.665 296.175 275.189 296.248 275.708 296.248C278.171 296.248 280.441 294.601 281.152 292.065L316.888 164.947C317.752 161.881 316.015 158.678 313.002 157.806C309.993 156.921 306.855 158.696 305.995 161.767L270.26 288.88C269.396 291.951 271.133 295.149 274.141 296.025Z" fill="#FAA307" fill-opacity="0.5"/>
<path d="M199.068 237.352L250.142 274.993C251.143 275.722 252.288 276.078 253.423 276.078C255.194 276.078 256.933 275.228 258.042 273.626C259.852 270.993 259.262 267.345 256.718 265.465L212.105 232.586L256.718 199.703C259.262 197.823 259.852 194.174 258.042 191.542C256.227 188.914 252.699 188.313 250.142 190.175L199.068 227.824C197.579 228.928 196.694 230.697 196.694 232.586C196.694 234.48 197.579 236.253 199.068 237.352Z" fill="#D00000" fill-opacity="0.6"/>
<path d="M338.96 273.626C340.064 275.228 341.808 276.078 343.574 276.078C344.714 276.078 345.859 275.722 346.856 274.993L397.936 237.352C399.425 236.253 400.305 234.48 400.305 232.586C400.305 230.697 399.425 228.928 397.936 227.824L346.856 190.175C344.303 188.313 340.78 188.914 338.96 191.542C337.145 194.174 337.74 197.823 340.279 199.703L384.899 232.586L340.279 265.465C337.74 267.345 337.145 270.993 338.96 273.626Z" fill="#D00000" fill-opacity="0.6"/>
<rect x="212.997" y="486.116" width="150.528" height="29.8835" fill="black"/>
</svg>
