<svg width="92" height="70" viewBox="0 0 92 70" fill="none" xmlns="http://www.w3.org/2000/svg">
<path d="M91.8101 20.7433L91.3895 56.3508C91.3895 59.9023 89.8999 63.3084 87.2483 65.8197C84.5967 68.331 81.0004 69.7418 77.2505 69.7418H15.0385C11.2886 69.7418 7.69225 68.331 5.04066 65.8197C2.38906 63.3084 0.899414 59.9023 0.899414 56.3508L1.31994 20.7433L45.1285 45.1578C45.5637 45.4009 46.0597 45.5292 46.565 45.5292C47.0703 45.5292 47.5663 45.4009 48.0015 45.1578L91.8101 20.7433ZM77.2505 0.108399C80.7295 0.10788 84.0866 1.3222 86.6796 3.51904C89.2725 5.71589 90.9192 8.74102 91.3047 12.0157L46.1445 37.1748L0.984249 12.0157C1.36973 8.74102 3.01645 5.71589 5.6094 3.51904C8.20234 1.3222 11.5595 0.10788 15.0385 0.108399H77.2505Z" fill="white"/>
</svg>
