<svg width="567" height="530" viewBox="0 0 567 530" fill="none" xmlns="http://www.w3.org/2000/svg">
<path d="M566.62 368.038C566.549 367.974 566.45 367.939 566.323 367.951C564.913 367.735 563.502 367.526 562.102 367.258C560.604 366.972 559.193 366.536 557.733 366.075C557.189 365.837 556.646 365.604 556.103 365.365C556.07 365.353 556.009 365.313 555.982 365.295C555.905 365.249 555.828 365.196 555.757 365.144C555.4 364.911 555.043 364.672 554.686 364.439C554.599 364.381 554.511 364.323 554.423 364.264C554.428 364.264 554.505 364.34 554.352 364.2C554.083 363.956 553.814 363.711 553.545 363.466C553.138 363.1 552.787 362.727 552.419 362.308C552.183 362.04 551.947 361.772 551.717 361.504C551.7 361.486 551.689 361.475 551.684 361.469C551.607 361.341 551.525 361.219 551.448 361.09C551.146 360.607 550.811 360.141 550.553 359.629C550.388 359.285 550.218 358.947 550.048 358.604C549.966 358.441 549.883 358.278 549.801 358.114C549.774 358.056 549.757 358.033 549.752 358.021C549.691 357.841 549.636 357.666 549.576 357.491C549.57 357.468 549.57 357.445 549.565 357.416C549.164 355.925 548.758 354.451 548.44 352.937C548.335 352.454 548.237 351.976 548.138 351.487C548.105 351.336 548.094 351.26 548.105 351.394C548.094 351.254 548.077 351.109 548.066 350.969C547.973 350.084 547.885 349.198 547.797 348.313C547.797 348.267 547.797 348.232 547.797 348.191C547.797 340.556 547.797 332.915 547.797 325.28C547.797 313.406 547.797 301.537 547.797 289.662C547.797 278.213 547.797 266.758 547.797 255.308C547.797 253.509 547.797 251.715 547.797 249.916C547.797 249.584 547.797 249.252 547.797 248.92C547.797 248.885 547.797 248.844 547.797 248.803C547.88 247.953 547.968 247.103 548.055 246.253C548.072 246.095 548.083 245.932 548.105 245.775C548.105 245.757 548.11 245.734 548.121 245.693C548.22 245.193 548.319 244.692 548.423 244.191C548.731 242.671 549.142 241.198 549.565 239.701C549.581 239.637 549.587 239.579 549.581 239.526C549.631 239.386 549.675 239.241 549.719 239.095C549.735 239.037 549.839 238.821 549.73 239.031C549.785 238.932 549.834 238.827 549.883 238.722C550.076 238.338 550.273 237.954 550.465 237.569C550.712 237.069 551.009 236.608 551.311 236.137C551.711 235.496 551.777 235.438 552.326 234.803C552.694 234.39 553.045 233.994 553.451 233.627C553.731 233.37 554.006 233.12 554.286 232.864C554.335 232.817 554.593 232.642 554.39 232.765C554.489 232.707 554.593 232.648 554.686 232.59C555.702 231.984 556.712 231.443 557.76 230.919C559.16 230.534 560.554 230.156 561.971 229.83C562.421 229.725 562.871 229.626 563.326 229.521C563.469 229.492 563.535 229.48 563.409 229.498C563.54 229.48 563.678 229.463 563.815 229.451C564.649 229.358 565.484 229.259 566.318 229.166C566.609 229.166 566.763 228.939 566.779 228.694C566.818 228.519 566.779 228.333 566.625 228.228C566.549 228.17 566.455 228.135 566.323 228.147C564.913 227.931 563.508 227.716 562.102 227.454C560.604 227.168 559.193 226.726 557.733 226.271C557.195 226.033 556.646 225.794 556.103 225.561C556.075 225.543 556.009 225.503 555.982 225.491C555.91 225.439 555.834 225.386 555.757 225.34C555.405 225.107 555.049 224.868 554.692 224.635C554.604 224.571 554.511 224.513 554.423 224.454C554.428 224.46 554.505 224.53 554.352 224.39C554.083 224.152 553.819 223.907 553.55 223.662C553.144 223.295 552.787 222.917 552.425 222.503C552.189 222.236 551.953 221.962 551.717 221.694C551.706 221.682 551.695 221.671 551.684 221.665C551.607 221.537 551.53 221.414 551.448 221.286C551.146 220.803 550.811 220.337 550.559 219.824C550.388 219.481 550.218 219.143 550.048 218.805C549.966 218.636 549.883 218.473 549.801 218.31C549.774 218.252 549.763 218.229 549.752 218.217C549.697 218.042 549.642 217.879 549.587 217.705C549.592 217.641 549.587 217.577 549.565 217.501C549.159 216.051 548.753 214.612 548.44 213.133C548.341 212.65 548.237 212.172 548.138 211.689C548.105 211.537 548.099 211.456 548.11 211.596C548.099 211.45 548.083 211.31 548.066 211.165C547.979 210.279 547.891 209.394 547.797 208.509C547.83 208.206 547.638 208.043 547.413 208.026C547.347 208.014 547.287 208.014 547.221 208.026C547.002 208.043 546.804 208.206 546.837 208.509C546.749 209.359 546.667 210.21 546.579 211.06C546.562 211.217 546.546 211.374 546.529 211.537C546.524 211.549 546.518 211.578 546.513 211.619C546.414 212.079 546.321 212.539 546.222 212.993C545.953 214.292 545.64 215.579 545.327 216.866C545.185 217.303 545.036 217.74 544.888 218.176C544.888 218.188 544.883 218.2 544.877 218.205C544.817 218.334 544.756 218.456 544.696 218.578C544.504 218.963 544.312 219.347 544.12 219.731C543.884 220.197 543.598 220.628 543.324 221.065C542.918 221.711 542.852 221.77 542.303 222.399C541.962 222.783 541.644 223.156 541.271 223.493C540.985 223.755 540.7 224.012 540.42 224.268C540.332 224.35 540.244 224.425 540.162 224.501C540.343 224.338 540.074 224.548 540.03 224.577C539.706 224.786 539.394 225.002 539.075 225.211C538.932 225.305 538.795 225.392 538.652 225.485C538.614 225.514 538.603 225.526 538.598 225.532C538.598 225.532 538.598 225.532 538.592 225.532C538.027 225.776 537.461 226.027 536.901 226.271C535.485 226.714 534.113 227.151 532.658 227.424C531.209 227.704 529.76 227.925 528.305 228.147C528.267 228.141 528.234 228.141 528.201 228.147C527.888 228.147 527.575 228.147 527.262 228.147C520.373 228.147 513.49 228.147 506.601 228.147C495.409 228.147 484.216 228.147 473.024 228.147C462.232 228.147 451.44 228.147 440.649 228.147C438.661 228.147 436.669 228.147 434.682 228.147C434.649 228.141 434.61 228.141 434.578 228.147C433.161 227.931 431.745 227.716 430.34 227.442C428.885 227.151 427.507 226.714 426.086 226.271C425.542 226.033 424.999 225.8 424.455 225.561C424.423 225.543 424.362 225.508 424.335 225.491C424.258 225.439 424.181 225.392 424.11 225.34C423.753 225.107 423.396 224.868 423.045 224.635C422.951 224.577 422.864 224.518 422.776 224.46C422.787 224.466 422.853 224.524 422.693 224.396C422.408 224.152 422.123 223.907 421.832 223.662C421.65 223.505 421.486 223.354 421.332 223.196C421.283 223.103 421.206 223.022 421.113 222.969C420.981 222.824 420.849 222.666 420.712 222.503C420.498 222.236 420.278 221.962 420.059 221.694C420.042 221.676 420.031 221.665 420.026 221.653C419.949 221.542 419.872 221.432 419.795 221.321C419.477 220.861 419.076 220.407 418.84 219.889C418.692 219.545 418.538 219.196 418.384 218.852C418.302 218.677 418.225 218.502 418.148 218.328C418.132 218.281 418.115 218.252 418.11 218.235C417.912 217.646 417.715 217.058 417.523 216.47C417.215 215.369 416.93 214.274 416.732 213.139C416.65 212.655 416.568 212.172 416.48 211.689C416.458 211.555 416.452 211.479 416.452 211.549C416.441 211.421 416.43 211.293 416.414 211.165C416.326 210.279 416.238 209.394 416.15 208.509C416.15 208.2 415.931 208.037 415.706 208.02C415.536 207.979 415.36 208.026 415.267 208.183C415.206 208.264 415.173 208.369 415.184 208.503C414.981 210.006 414.778 211.502 414.52 212.993C414.311 214.187 414.015 215.34 413.697 216.493C413.51 217.052 413.323 217.617 413.137 218.176C413.131 218.2 413.126 218.217 413.12 218.229C413.065 218.357 413.005 218.485 412.95 218.613C412.774 219.009 412.599 219.405 412.423 219.801C412.193 220.319 411.825 220.762 411.506 221.222C411.424 221.339 411.342 221.455 411.259 221.577C411.144 221.74 411.194 221.665 411.205 221.653C410.974 221.938 410.749 222.218 410.518 222.503C410.387 222.666 410.26 222.818 410.129 222.963C410.03 223.016 409.942 223.109 409.887 223.22C409.777 223.33 409.662 223.441 409.536 223.546C409.245 223.79 408.954 224.041 408.663 224.285C408.581 224.355 408.493 224.431 408.405 224.501C408.603 224.338 408.317 224.548 408.273 224.577C407.955 224.786 407.637 224.996 407.318 225.206C407.181 225.299 407.038 225.392 406.901 225.485C406.863 225.508 406.846 225.526 406.846 225.526C406.846 225.526 406.841 225.526 406.841 225.532C406.275 225.776 405.715 226.021 405.145 226.271C403.728 226.714 402.35 227.151 400.896 227.436C399.491 227.716 398.074 227.931 396.658 228.147C396.625 228.141 396.587 228.141 396.554 228.147C396.208 228.147 395.862 228.147 395.516 228.147C394.896 228.147 394.896 229.166 395.516 229.166C395.901 229.166 396.285 229.166 396.669 229.166C397.471 229.259 398.272 229.346 399.073 229.439C399.227 229.457 399.375 229.474 399.524 229.492C399.54 229.492 399.562 229.498 399.606 229.509C400.034 229.614 400.468 229.713 400.896 229.812C402.312 230.15 403.717 230.534 405.123 230.919C406.133 231.425 407.121 231.944 408.098 232.526C408.202 232.59 408.306 232.654 408.411 232.718C408.443 232.736 408.465 232.747 408.471 232.747C408.476 232.753 408.476 232.753 408.482 232.753C408.784 233.015 409.091 233.277 409.399 233.534C409.838 233.906 410.156 234.25 410.518 234.698C410.738 234.966 410.952 235.234 411.172 235.502C411.188 235.519 411.199 235.531 411.205 235.543C411.21 235.549 411.21 235.554 411.221 235.566C411.314 235.7 411.408 235.84 411.506 235.979C411.825 236.44 412.193 236.876 412.423 237.395C412.582 237.756 412.742 238.111 412.901 238.472C412.972 238.629 413.038 238.787 413.109 238.944C413.115 238.95 413.115 238.961 413.12 238.967C413.126 238.979 413.131 238.996 413.137 239.019C413.34 239.648 413.537 240.283 413.735 240.918C413.752 240.965 413.768 241.005 413.79 241.046C414.075 242.083 414.328 243.114 414.509 244.185C414.767 245.723 414.976 247.266 415.19 248.809C415.184 248.85 415.184 248.885 415.19 248.92C415.19 249.246 415.19 249.578 415.19 249.91C415.19 254.79 415.19 259.67 415.19 264.551C415.19 283.361 415.19 302.172 415.19 320.982C415.19 330.05 415.19 339.123 415.19 348.191C415.184 348.22 415.184 348.261 415.19 348.296C414.987 349.798 414.784 351.295 414.52 352.792C414.322 353.921 414.053 355.016 413.768 356.111C413.757 356.134 413.741 356.158 413.735 356.187C413.537 356.781 413.34 357.375 413.142 357.975C413.137 357.992 413.131 358.01 413.126 358.021C413.065 358.149 413.01 358.283 412.956 358.406C412.78 358.807 412.604 359.203 412.423 359.6C412.209 360.077 411.874 360.485 411.583 360.904C411.166 361.504 411.111 361.562 410.606 362.191C410.447 362.389 410.299 362.575 410.14 362.756C410.03 362.808 409.937 362.907 409.887 363.024C409.794 363.117 409.701 363.204 409.596 363.292C409.294 363.548 408.992 363.804 408.691 364.066C408.597 364.142 408.504 364.224 408.411 364.299C408.603 364.136 408.317 364.346 408.279 364.375C407.96 364.585 407.642 364.794 407.324 365.004C407.181 365.097 407.044 365.19 406.901 365.283C406.868 365.307 406.852 365.318 406.846 365.324C406.846 365.324 406.846 365.33 406.841 365.33C406.275 365.575 405.715 365.825 405.15 366.07C403.728 366.512 402.35 366.949 400.896 367.234C399.491 367.514 398.08 367.724 396.664 367.945C396.625 367.939 396.592 367.939 396.559 367.945C396.214 367.945 395.862 367.945 395.516 367.945C386.251 367.945 376.99 367.945 367.725 367.945C346.158 367.945 324.596 367.945 303.029 367.945C302.996 367.939 302.963 367.939 302.925 367.945C301.514 367.729 300.109 367.514 298.704 367.246C297.205 366.967 295.794 366.524 294.334 366.064C293.791 365.831 293.247 365.592 292.704 365.353C292.671 365.342 292.611 365.301 292.583 365.283C292.506 365.237 292.43 365.184 292.358 365.138C292.001 364.899 291.645 364.666 291.293 364.427C291.2 364.369 291.112 364.311 291.024 364.253C291.03 364.253 291.107 364.328 290.953 364.189C290.684 363.944 290.421 363.699 290.152 363.461C289.74 363.088 289.389 362.715 289.026 362.296C288.79 362.028 288.554 361.76 288.318 361.492C288.307 361.475 288.296 361.469 288.285 361.457C288.208 361.329 288.132 361.207 288.055 361.085C287.747 360.601 287.418 360.129 287.16 359.617C286.99 359.279 286.82 358.936 286.649 358.598C286.567 358.429 286.485 358.266 286.402 358.109C286.375 358.05 286.364 358.021 286.353 358.01C286.298 357.835 286.238 357.66 286.177 357.486C286.177 357.456 286.177 357.433 286.166 357.404C285.766 355.919 285.359 354.44 285.041 352.926C284.942 352.448 284.838 351.965 284.739 351.481C284.706 351.33 284.695 351.248 284.712 351.388C284.695 351.242 284.684 351.103 284.668 350.957C284.58 350.072 284.492 349.187 284.399 348.301C284.432 347.999 284.24 347.836 284.015 347.818C283.954 347.806 283.888 347.806 283.823 347.818C283.603 347.836 283.405 347.999 283.438 348.301C283.35 349.152 283.268 350.002 283.18 350.852C283.164 351.01 283.147 351.173 283.131 351.33C283.131 351.341 283.125 351.371 283.114 351.411C283.01 351.918 282.9 352.425 282.796 352.926C282.478 354.44 282.071 355.919 281.671 357.404C281.665 357.433 281.665 357.456 281.66 357.486C281.605 357.643 281.55 357.806 281.501 357.969C281.495 357.981 281.49 357.992 281.49 357.998C281.424 358.126 281.363 358.248 281.303 358.371C281.111 358.755 280.919 359.139 280.727 359.524C280.496 359.99 280.205 360.421 279.931 360.857C279.524 361.498 279.464 361.556 278.91 362.191C278.575 362.575 278.251 362.948 277.872 363.286C277.592 363.542 277.307 363.804 277.021 364.06C276.939 364.136 276.851 364.218 276.763 364.293C276.95 364.125 276.681 364.34 276.632 364.369C276.313 364.579 275.995 364.794 275.677 365.004C275.539 365.097 275.402 365.184 275.259 365.278C275.221 365.307 275.204 365.318 275.199 365.324C274.634 365.569 274.068 365.819 273.503 366.064C272.087 366.506 270.72 366.943 269.265 367.217C267.816 367.496 266.367 367.718 264.907 367.939C264.874 367.933 264.835 367.933 264.808 367.939C264.495 367.939 264.182 367.939 263.869 367.939C261.251 367.939 258.638 367.939 256.025 367.939C227.778 367.939 199.531 367.939 171.283 367.939C171.256 367.933 171.217 367.933 171.179 367.939C169.763 367.724 168.352 367.508 166.947 367.234C165.492 366.943 164.109 366.506 162.687 366.064C162.138 365.837 161.584 365.61 161.029 365.377C160.958 365.348 160.881 365.318 160.81 365.289C161.035 365.382 160.738 365.214 160.689 365.179C160.343 364.934 159.997 364.689 159.652 364.445C159.558 364.381 159.47 364.317 159.383 364.253C159.388 364.253 159.459 364.317 159.3 364.189C159.015 363.944 158.724 363.699 158.439 363.455C158.252 363.298 158.093 363.146 157.939 362.989C157.884 362.896 157.807 362.814 157.719 362.762C157.582 362.616 157.456 362.465 157.319 362.296C157.099 362.028 156.885 361.754 156.665 361.486C156.649 361.469 156.638 361.457 156.633 361.446C156.556 361.335 156.479 361.224 156.402 361.114C156.084 360.654 155.683 360.199 155.452 359.681C155.299 359.332 155.145 358.988 154.991 358.644C154.914 358.464 154.832 358.289 154.755 358.114C154.733 358.074 154.722 358.045 154.717 358.021C154.508 357.41 154.305 356.798 154.102 356.181C154.091 356.152 154.08 356.129 154.064 356.099C153.789 355.051 153.526 354.003 153.339 352.926C153.065 351.388 152.856 349.845 152.647 348.296C152.647 348.255 152.647 348.214 152.647 348.185C152.647 329.328 152.647 310.476 152.647 291.625C152.647 277.718 152.647 263.817 152.647 249.91C152.647 249.578 152.647 249.246 152.647 248.914C152.647 248.879 152.647 248.838 152.647 248.803C152.845 247.307 153.048 245.81 153.301 244.325C153.493 243.201 153.756 242.118 154.047 241.034C154.069 241 154.091 240.959 154.102 240.912C154.552 239.491 154.794 238.792 155.37 237.488C155.601 236.97 155.935 236.539 156.259 236.078C156.671 235.484 156.72 235.426 157.231 234.797C157.588 234.349 157.906 233.982 158.334 233.615C158.631 233.365 158.933 233.108 159.229 232.858C159.273 232.817 159.553 232.625 159.35 232.753C159.449 232.689 159.553 232.625 159.652 232.561C160.651 231.926 161.639 231.42 162.704 230.919C164.114 230.528 165.52 230.144 166.941 229.806C167.375 229.707 167.803 229.603 168.237 229.503C168.281 229.492 168.303 229.486 168.314 229.48C168.467 229.463 168.615 229.445 168.769 229.428C169.571 229.34 170.367 229.247 171.168 229.16C171.464 229.16 171.618 228.933 171.635 228.688C171.673 228.508 171.629 228.327 171.475 228.222C171.404 228.158 171.305 228.123 171.179 228.135C169.763 227.919 168.346 227.704 166.941 227.43C165.487 227.145 164.109 226.708 162.687 226.26C162.133 226.033 161.578 225.805 161.024 225.578C160.953 225.549 160.881 225.514 160.81 225.485C161.035 225.578 160.733 225.409 160.684 225.374C160.343 225.13 159.992 224.885 159.652 224.641C159.558 224.577 159.47 224.513 159.377 224.449C159.383 224.454 159.454 224.518 159.295 224.384C159.009 224.14 158.724 223.895 158.433 223.656C158.252 223.499 158.087 223.348 157.934 223.191C157.884 223.092 157.807 223.016 157.714 222.963C157.582 222.818 157.45 222.661 157.313 222.498C157.099 222.224 156.88 221.956 156.665 221.688C156.649 221.671 156.638 221.659 156.627 221.647C156.55 221.537 156.473 221.426 156.397 221.315C156.078 220.855 155.677 220.401 155.447 219.883C155.293 219.539 155.139 219.19 154.986 218.846C154.909 218.671 154.832 218.497 154.755 218.322C154.733 218.275 154.722 218.246 154.711 218.229C154.519 217.646 154.327 217.07 154.135 216.487C153.817 215.329 153.52 214.181 153.312 212.987C153.048 211.497 152.845 210 152.642 208.497C152.658 208.363 152.625 208.259 152.565 208.177C152.472 208.02 152.296 207.973 152.126 208.014C151.895 208.031 151.681 208.195 151.681 208.503C151.599 209.353 151.511 210.204 151.423 211.054C151.407 211.217 151.39 211.38 151.374 211.543C151.374 211.561 151.368 211.578 151.363 211.613C151.281 212.073 151.204 212.533 151.121 212.987C150.913 214.181 150.622 215.329 150.304 216.487C150.117 217.047 149.925 217.611 149.744 218.171C149.733 218.194 149.727 218.211 149.727 218.223C149.667 218.351 149.612 218.479 149.552 218.607C149.376 219.003 149.2 219.399 149.025 219.795C148.81 220.273 148.476 220.681 148.179 221.106C147.768 221.706 147.713 221.764 147.208 222.393C147.048 222.591 146.895 222.777 146.741 222.958C146.631 223.01 146.538 223.109 146.483 223.226C146.395 223.319 146.302 223.406 146.198 223.493C145.896 223.75 145.588 224.006 145.286 224.262C145.193 224.344 145.1 224.419 145.012 224.501C145.199 224.338 144.919 224.548 144.88 224.571C144.562 224.78 144.238 224.996 143.925 225.206C143.782 225.299 143.645 225.392 143.502 225.479C143.464 225.508 143.448 225.52 143.448 225.526C143.442 225.526 143.442 225.526 143.442 225.526C142.877 225.77 142.311 226.021 141.751 226.266C140.33 226.714 138.952 227.151 137.497 227.436C136.092 227.71 134.681 227.925 133.26 228.141C133.227 228.141 133.194 228.141 133.161 228.141C132.809 228.141 132.464 228.141 132.118 228.141C125.229 228.141 118.34 228.141 111.451 228.141C100.259 228.141 89.0662 228.141 77.8737 228.141C67.082 228.141 56.2902 228.141 45.4985 228.141C43.5443 228.141 41.5902 228.141 39.6306 228.141C39.5976 228.141 39.5647 228.141 39.5263 228.141C38.1155 227.925 36.7048 227.716 35.3051 227.448C33.8065 227.162 32.3958 226.726 30.9302 226.266C30.3923 226.027 29.8488 225.794 29.3054 225.555C29.2725 225.543 29.2066 225.503 29.1791 225.485C29.1078 225.439 29.0309 225.386 28.9541 225.334C28.6028 225.101 28.246 224.868 27.8892 224.629C27.8014 224.571 27.7135 224.513 27.6202 224.454C27.6312 224.454 27.7026 224.53 27.5543 224.39C27.2854 224.146 27.0164 223.901 26.7474 223.656C26.3412 223.29 25.9899 222.917 25.6222 222.498C25.3861 222.23 25.1556 221.962 24.914 221.694C24.9031 221.676 24.8921 221.665 24.8866 221.659C24.8097 221.537 24.7274 221.409 24.6506 221.286C24.3487 220.803 24.0138 220.331 23.7558 219.819C23.5912 219.481 23.421 219.137 23.2508 218.8C23.1685 218.636 23.0861 218.473 23.0038 218.31C22.9764 218.252 22.9599 218.229 22.9544 218.211C22.8062 217.763 22.658 217.32 22.5098 216.872C22.1914 215.585 21.884 214.292 21.6096 212.993C21.5162 212.533 21.4174 212.073 21.3241 211.619C21.3131 211.572 21.3077 211.549 21.3077 211.532C21.2912 211.374 21.2747 211.217 21.2582 211.054C21.1704 210.204 21.0826 209.353 21.0003 208.503C21.0277 208.2 20.8356 208.043 20.616 208.02C20.5501 208.008 20.4843 208.008 20.4239 208.02C20.1988 208.043 20.0067 208.2 20.0342 208.503C19.9518 209.353 19.864 210.204 19.7817 211.054C19.7652 211.217 19.7487 211.374 19.7323 211.532C19.7268 211.549 19.7213 211.572 19.7103 211.619C19.617 212.073 19.5182 212.533 19.4249 212.993C19.1065 214.519 18.6893 215.998 18.2721 217.501C18.2502 217.571 18.2447 217.641 18.2502 217.705C18.1953 217.862 18.1459 218.019 18.0965 218.176C18.091 218.182 18.0855 218.194 18.0855 218.205C18.0196 218.328 17.9592 218.45 17.8989 218.578C17.7067 218.963 17.5146 219.347 17.3225 219.731C17.0865 220.197 16.801 220.622 16.5266 221.059C16.1204 221.706 16.06 221.764 15.5056 222.393C15.1653 222.777 14.8469 223.15 14.4736 223.493C14.1882 223.75 13.9027 224.006 13.6228 224.262C13.535 224.344 13.4471 224.419 13.3648 224.501C13.5459 224.332 13.277 224.542 13.2276 224.571C12.9147 224.78 12.5908 224.996 12.2779 225.206C12.1352 225.299 11.998 225.392 11.8553 225.479C11.8168 225.508 11.8004 225.52 11.8004 225.526C11.8004 225.526 11.8004 225.526 11.7949 225.526C11.2295 225.77 10.6696 226.021 10.1042 226.266C8.68801 226.708 7.31571 227.145 5.86108 227.424C4.41193 227.698 2.96279 227.919 1.50815 228.141C1.46973 228.141 1.4368 228.141 1.40386 228.141C1.09098 228.141 0.778093 228.141 0.465209 228.141C-0.15507 228.141 -0.15507 229.16 0.465209 229.16C0.816517 229.16 1.16234 229.16 1.51364 229.16C2.31507 229.253 3.11649 229.346 3.91791 229.434C4.0716 229.451 4.21981 229.469 4.37351 229.486C4.38449 229.492 4.40644 229.498 4.44487 229.503C4.87302 229.603 5.30118 229.702 5.72934 229.795C7.18946 230.127 8.62763 230.523 10.0768 230.919C11.0868 231.425 12.0693 231.944 13.0519 232.526C13.1562 232.59 13.2605 232.648 13.3648 232.712C13.3922 232.73 13.4087 232.736 13.4197 232.741C13.4197 232.747 13.4252 232.747 13.4307 232.753C13.7161 233.015 14.0015 233.271 14.287 233.534C14.6932 233.9 15.05 234.279 15.4123 234.692C15.6483 234.96 15.8843 235.228 16.1204 235.496C16.1313 235.514 16.1423 235.525 16.1533 235.531C16.1533 235.543 16.1643 235.554 16.1698 235.566C16.2686 235.717 16.3619 235.869 16.4552 236.014C16.7571 236.492 17.07 236.958 17.3225 237.465C17.4982 237.814 17.6683 238.158 17.844 238.507C17.9153 238.653 17.9922 238.798 18.0635 238.944C18.069 238.961 18.0745 238.967 18.08 238.979C18.0855 238.99 18.0855 239.002 18.091 239.014C18.1459 239.183 18.1953 239.351 18.2502 239.52C18.2502 239.573 18.2502 239.631 18.2721 239.695C18.6838 241.186 19.101 242.659 19.4084 244.185C19.5072 244.663 19.6005 245.14 19.6993 245.618C19.7323 245.775 19.7377 245.845 19.7268 245.711C19.7377 245.856 19.7542 245.996 19.7707 246.136C19.8585 247.027 19.9463 247.912 20.0342 248.797C20.0342 248.838 20.0342 248.879 20.0342 248.914C20.0342 249.246 20.0342 249.578 20.0342 249.91C20.0342 257.213 20.0342 264.522 20.0342 271.824C20.0342 283.699 20.0342 295.574 20.0342 307.442C20.0342 318.898 20.0342 330.347 20.0342 341.796C20.0342 343.928 20.0342 346.054 20.0342 348.185C20.0342 348.22 20.0342 348.261 20.0342 348.301C19.9518 349.152 19.864 350.002 19.7817 350.852C19.7652 351.01 19.7487 351.173 19.7323 351.33C19.7268 351.347 19.7213 351.371 19.7103 351.411C19.606 351.918 19.5017 352.425 19.3974 352.931C19.079 354.44 18.6728 355.919 18.2721 357.41C18.2612 357.433 18.2612 357.456 18.2557 357.486C18.2008 357.649 18.1514 357.812 18.0965 357.969C18.091 357.981 18.091 357.992 18.0855 358.004C18.0251 358.126 17.9647 358.248 17.8989 358.371C17.7067 358.755 17.5146 359.139 17.3225 359.524C17.092 359.996 16.801 360.421 16.5266 360.857C16.1204 361.504 16.06 361.562 15.5056 362.191C15.1707 362.575 14.8469 362.948 14.4736 363.286C14.1882 363.548 13.9082 363.804 13.6228 364.06C13.535 364.136 13.4471 364.218 13.3648 364.293C13.5459 364.13 13.277 364.34 13.2331 364.369C12.9147 364.585 12.5963 364.794 12.2779 365.004C12.1352 365.097 11.998 365.19 11.8553 365.283C11.8223 365.307 11.8059 365.318 11.8004 365.324C11.235 365.575 10.6696 365.819 10.1042 366.064C8.68801 366.506 7.31571 366.943 5.86657 367.223C4.41742 367.496 2.96279 367.718 1.50815 367.939C1.46973 367.933 1.4368 367.933 1.40386 367.939C1.09098 367.939 0.778093 367.939 0.470699 367.939C-0.155069 367.939 -0.155069 368.958 0.470699 368.958C0.816518 368.958 1.16783 368.958 1.51913 368.958C2.32055 369.051 3.11649 369.145 3.91791 369.232C4.0716 369.249 4.2253 369.267 4.37351 369.284C4.38998 369.284 4.40645 369.29 4.45036 369.302C4.87851 369.401 5.30118 369.494 5.72934 369.593C7.19495 369.925 8.63312 370.315 10.0768 370.717C11.1142 371.235 12.0748 371.765 13.0519 372.412C13.1562 372.482 13.2605 372.551 13.3703 372.621C13.4032 372.645 13.4197 372.656 13.4307 372.656C13.4307 372.662 13.4307 372.662 13.4362 372.662C13.7436 372.918 14.0455 373.169 14.3474 373.419C14.7865 373.786 15.1268 374.165 15.5056 374.601C15.7251 374.846 15.9392 375.091 16.1533 375.335C16.1588 375.347 16.1698 375.358 16.1753 375.364C16.2686 375.516 16.3619 375.667 16.4552 375.819C16.7571 376.29 17.07 376.756 17.3225 377.263C17.4982 377.612 17.6738 377.962 17.8495 378.311C17.9208 378.457 17.9922 378.602 18.0635 378.748C18.0745 378.76 18.08 378.771 18.0855 378.783C18.0855 378.789 18.0855 378.8 18.091 378.818C18.1459 378.981 18.2008 379.156 18.2502 379.319C18.2502 379.377 18.2557 379.435 18.2721 379.493C18.6893 380.99 19.101 382.463 19.4139 383.983C19.5072 384.461 19.606 384.944 19.6993 385.422C19.7323 385.573 19.7377 385.643 19.7268 385.509C19.7432 385.655 19.7542 385.795 19.7707 385.94C19.8585 386.825 19.9463 387.711 20.0396 388.596C20.0342 388.637 20.0342 388.677 20.0396 388.712C20.0396 389.044 20.0396 389.376 20.0396 389.708C20.0396 390.366 21.0003 390.366 21.0003 389.708C21.0003 389.376 21.0003 389.044 21.0003 388.712C21.0057 388.677 21.0057 388.637 21.0003 388.596C21.0881 387.746 21.1759 386.895 21.2582 386.045C21.2747 385.888 21.2912 385.725 21.3077 385.567C21.3077 385.55 21.3131 385.527 21.3241 385.486C21.4174 385.038 21.5053 384.577 21.5986 384.129C21.8456 382.9 22.131 381.689 22.422 380.478C22.5921 379.948 22.7568 379.418 22.9215 378.888C22.9434 378.829 23.0422 378.614 22.9324 378.824C22.9873 378.725 23.0367 378.62 23.0916 378.515C23.2838 378.131 23.4759 377.746 23.668 377.362C23.915 376.861 24.2169 376.407 24.5078 375.935C24.914 375.289 24.9799 375.23 25.5288 374.601C25.8747 374.205 26.193 373.833 26.5937 373.501C26.8847 373.256 27.1811 373.017 27.472 372.773C27.5159 372.738 27.8014 372.534 27.5928 372.668C27.6916 372.604 27.7904 372.54 27.8892 372.47C28.8992 371.806 29.8872 371.253 30.9631 370.717C32.3629 370.333 33.7571 369.948 35.1678 369.622C35.618 369.523 36.0736 369.418 36.5237 369.319C36.6719 369.284 36.7323 369.279 36.6115 369.29C36.7432 369.273 36.8805 369.261 37.0122 369.244C37.8466 369.15 38.6864 369.057 39.5208 368.958C59.8363 368.958 80.1517 368.958 100.467 368.958C111.017 368.958 121.568 368.958 132.118 368.958C132.502 368.958 132.886 368.958 133.271 368.958C134.072 369.051 134.873 369.145 135.675 369.232C135.823 369.249 135.977 369.267 136.125 369.284C136.136 369.284 136.163 369.29 136.202 369.302C136.635 369.407 137.069 369.506 137.497 369.605C138.919 369.942 140.319 370.327 141.724 370.717C142.761 371.235 143.722 371.759 144.699 372.406C145.149 372.703 145.566 373.035 145.995 373.367C146.22 373.541 146.439 373.716 146.664 373.891C146.472 373.739 146.703 373.972 146.741 374.025C146.867 374.176 146.994 374.334 147.12 374.491C147.334 374.759 147.553 375.027 147.773 375.294C147.784 375.312 147.795 375.329 147.8 375.335C147.806 375.341 147.811 375.347 147.817 375.358C147.916 375.492 148.009 375.632 148.108 375.772C148.421 376.232 148.794 376.669 149.025 377.187C149.184 377.548 149.337 377.903 149.502 378.265C149.568 378.422 149.639 378.579 149.711 378.736C149.716 378.748 149.716 378.754 149.722 378.76C149.722 378.771 149.727 378.789 149.738 378.812C149.936 379.447 150.133 380.082 150.331 380.71C150.347 380.763 150.369 380.804 150.391 380.839C150.671 381.875 150.929 382.906 151.11 383.983C151.193 384.461 151.27 384.938 151.352 385.422C151.374 385.544 151.385 385.608 151.379 385.567C151.39 385.69 151.401 385.812 151.418 385.934C151.506 386.82 151.593 387.705 151.687 388.59C151.687 388.963 151.687 389.335 151.687 389.708C151.687 408.228 151.687 426.747 151.687 445.266C151.687 459.546 151.687 473.82 151.687 488.1C151.599 488.95 151.511 489.8 151.429 490.651C151.412 490.814 151.396 490.977 151.379 491.14C151.374 491.157 151.374 491.175 151.368 491.21C151.281 491.711 151.198 492.211 151.11 492.712C150.929 493.784 150.677 494.815 150.397 495.851C150.369 495.892 150.353 495.933 150.336 495.979C150.144 496.591 149.952 497.196 149.76 497.808C149.744 497.86 149.645 498.093 149.749 497.872C149.694 497.983 149.639 498.099 149.584 498.216C149.403 498.606 149.217 498.996 149.036 499.386C148.794 499.893 148.454 500.347 148.152 500.813C148.069 500.947 147.982 501.075 147.899 501.203C147.866 501.256 147.663 501.512 147.828 501.325C147.608 501.582 147.383 501.838 147.164 502.088C146.829 502.473 146.521 502.811 146.137 503.137C145.846 503.381 145.555 503.632 145.264 503.876C145.182 503.946 145.094 504.022 145.012 504.092C145.204 503.929 144.919 504.138 144.88 504.167C144.562 504.383 144.243 504.593 143.925 504.802C143.782 504.895 143.645 504.989 143.502 505.076C143.464 505.105 143.448 505.117 143.448 505.123C143.448 505.123 143.448 505.123 143.442 505.123C142.882 505.367 142.317 505.618 141.751 505.862C140.379 506.293 139.029 506.73 137.629 507.056C137.179 507.161 136.723 507.271 136.268 507.376C136.119 507.411 136.048 507.417 136.18 507.405C136.043 507.423 135.905 507.435 135.774 507.452C134.939 507.545 134.105 507.638 133.271 507.737C133.232 507.732 133.194 507.732 133.161 507.737C132.809 507.737 132.464 507.737 132.118 507.737C131.498 507.737 131.498 508.757 132.118 508.757C132.464 508.757 132.809 508.757 133.161 508.757C133.194 508.762 133.232 508.762 133.271 508.757C134.072 508.85 134.873 508.937 135.675 509.03C135.823 509.048 135.977 509.065 136.125 509.083C136.136 509.089 136.163 509.094 136.202 509.1C136.635 509.205 137.069 509.304 137.497 509.409C138.919 509.741 140.319 510.125 141.724 510.509C142.761 511.034 143.722 511.558 144.699 512.204C145.149 512.501 145.566 512.833 145.995 513.165C146.22 513.34 146.439 513.515 146.664 513.683C146.472 513.538 146.703 513.771 146.741 513.817C146.867 513.975 146.994 514.132 147.12 514.289C147.334 514.557 147.553 514.825 147.773 515.093C147.784 515.11 147.795 515.128 147.8 515.134C147.806 515.139 147.811 515.145 147.817 515.157C147.916 515.297 148.009 515.431 148.108 515.57C148.421 516.03 148.794 516.473 149.025 516.985C149.184 517.347 149.337 517.702 149.502 518.063C149.568 518.22 149.639 518.377 149.711 518.535C149.716 518.546 149.716 518.552 149.722 518.564C149.722 518.569 149.727 518.587 149.738 518.616C149.936 519.245 150.133 519.88 150.331 520.515C150.347 520.561 150.369 520.602 150.391 520.637C150.671 521.674 150.929 522.71 151.11 523.782C151.193 524.259 151.27 524.743 151.352 525.22C151.374 525.348 151.385 525.412 151.374 525.36C151.39 525.482 151.401 525.61 151.412 525.738C151.506 526.624 151.593 527.503 151.681 528.388C151.681 528.761 151.681 529.134 151.681 529.506C151.681 530.165 152.647 530.165 152.647 529.506C152.647 529.174 152.647 528.843 152.647 528.511C152.647 528.476 152.647 528.435 152.647 528.4C152.845 526.903 153.048 525.412 153.301 523.921C153.493 522.798 153.756 521.72 154.047 520.637C154.069 520.602 154.091 520.561 154.102 520.515C154.552 519.094 154.794 518.395 155.37 517.09C155.601 516.572 155.935 516.141 156.259 515.681C156.671 515.087 156.72 515.029 157.231 514.394C157.434 514.149 157.632 513.899 157.835 513.654C157.829 513.654 157.741 513.718 157.901 513.59C158.049 513.474 158.191 513.363 158.34 513.247C158.773 512.909 159.201 512.565 159.652 512.251C160.107 511.925 160.563 511.523 161.068 511.29C161.611 511.034 162.16 510.772 162.704 510.515C164.114 510.131 165.52 509.747 166.941 509.409C167.375 509.31 167.809 509.205 168.237 509.106C168.281 509.094 168.303 509.089 168.314 509.083C168.467 509.065 168.621 509.048 168.769 509.03C169.571 508.943 170.367 508.85 171.173 508.757C171.212 508.762 171.25 508.762 171.283 508.757C176.229 508.757 181.175 508.757 186.12 508.757C203.856 508.757 221.597 508.757 239.327 508.757C247.512 508.757 255.685 508.757 263.869 508.757C264.177 508.757 264.49 508.757 264.802 508.757C264.841 508.762 264.874 508.762 264.912 508.757C265.719 508.85 266.521 508.943 267.322 509.03C267.47 509.048 267.624 509.065 267.772 509.083C267.789 509.089 267.811 509.094 267.849 509.1C268.277 509.199 268.705 509.298 269.133 509.397C270.594 509.729 272.032 510.119 273.475 510.515C274.513 511.034 275.473 511.564 276.451 512.21C276.555 512.28 276.659 512.35 276.769 512.42C276.802 512.443 276.824 512.455 276.829 512.455C276.829 512.455 276.829 512.46 276.835 512.46C277.142 512.717 277.444 512.967 277.751 513.223C278.185 513.584 278.531 513.969 278.91 514.394C279.124 514.644 279.338 514.889 279.557 515.134C279.563 515.145 279.568 515.157 279.574 515.168C279.667 515.314 279.76 515.465 279.859 515.617C280.156 516.094 280.474 516.555 280.727 517.061C280.897 517.411 281.072 517.76 281.248 518.109C281.319 518.255 281.391 518.401 281.468 518.546C281.473 518.564 281.479 518.569 281.484 518.581C281.484 518.593 281.49 518.604 281.495 518.616C281.55 518.779 281.599 518.954 281.654 519.117C281.649 519.175 281.654 519.228 281.671 519.292C282.088 520.783 282.505 522.256 282.812 523.782C282.906 524.259 283.005 524.743 283.103 525.22C283.131 525.372 283.142 525.441 283.125 525.308C283.142 525.453 283.158 525.593 283.169 525.738C283.263 526.624 283.35 527.503 283.438 528.394C283.433 528.435 283.438 528.476 283.438 528.511C283.438 528.843 283.438 529.174 283.438 529.506C283.438 530.165 284.404 530.165 284.404 529.506C284.404 529.174 284.404 528.843 284.404 528.511C284.404 528.476 284.404 528.435 284.404 528.394C284.487 527.544 284.575 526.694 284.657 525.843C284.673 525.686 284.69 525.523 284.706 525.36C284.712 525.348 284.717 525.325 284.728 525.284C284.827 524.783 284.926 524.283 285.03 523.782C285.338 522.256 285.749 520.783 286.166 519.292C286.188 519.228 286.194 519.175 286.188 519.117C286.232 518.971 286.282 518.832 286.326 518.686C286.342 518.634 286.441 518.412 286.337 518.622C286.386 518.523 286.441 518.418 286.49 518.319C286.682 517.929 286.874 517.545 287.067 517.16C287.319 516.659 287.616 516.205 287.912 515.733C288.318 515.087 288.379 515.029 288.933 514.394C289.279 514.004 289.597 513.637 289.998 513.299C290.289 513.054 290.58 512.81 290.876 512.571C290.915 512.536 291.2 512.332 290.997 512.466C291.096 512.402 291.194 512.338 291.293 512.274C292.303 511.604 293.291 511.051 294.362 510.515C295.767 510.131 297.156 509.747 298.572 509.426C299.022 509.321 299.478 509.222 299.928 509.118C300.07 509.083 300.136 509.077 300.016 509.094C300.147 509.077 300.279 509.059 300.416 509.048C301.251 508.949 302.085 508.856 302.919 508.762C302.958 508.768 303.002 508.768 303.035 508.762C320.842 508.762 338.648 508.762 356.455 508.762C369.476 508.762 382.496 508.762 395.516 508.762C395.868 508.762 396.214 508.762 396.559 508.762C396.592 508.768 396.631 508.768 396.669 508.762C397.471 508.856 398.272 508.943 399.073 509.036C399.227 509.054 399.375 509.065 399.529 509.083C399.54 509.089 399.562 509.094 399.606 509.106C400.04 509.205 400.468 509.31 400.901 509.409C402.318 509.747 403.717 510.131 405.123 510.515C406.16 511.034 407.121 511.564 408.098 512.21C408.548 512.507 408.965 512.839 409.393 513.171C409.618 513.34 409.843 513.515 410.063 513.689C409.871 513.538 410.101 513.777 410.14 513.823C410.266 513.98 410.392 514.132 410.518 514.289C410.738 514.557 410.952 514.831 411.172 515.099C411.188 515.116 411.199 515.134 411.205 515.139C411.21 515.145 411.216 515.151 411.221 515.157C411.314 515.297 411.413 515.436 411.506 515.576C411.825 516.03 412.198 516.473 412.423 516.991C412.582 517.352 412.742 517.708 412.901 518.069C412.972 518.226 413.043 518.383 413.115 518.54C413.115 518.552 413.12 518.558 413.12 518.564C413.126 518.575 413.131 518.593 413.137 518.616C413.34 519.251 413.537 519.886 413.735 520.515C413.752 520.567 413.768 520.608 413.795 520.643C414.075 521.679 414.328 522.71 414.509 523.788C414.767 525.319 414.981 526.862 415.19 528.406C415.184 528.441 415.184 528.481 415.19 528.511C415.19 528.843 415.19 529.174 415.19 529.506C415.19 530.165 416.15 530.165 416.15 529.506C416.15 529.14 416.15 528.767 416.15 528.394C416.238 527.544 416.32 526.699 416.408 525.843C416.425 525.68 416.441 525.517 416.458 525.354C416.463 525.337 416.463 525.319 416.469 525.284C416.557 524.783 416.639 524.283 416.721 523.788C416.902 522.71 417.16 521.679 417.44 520.643C417.462 520.602 417.484 520.561 417.501 520.515C417.945 519.094 418.187 518.395 418.769 517.09C418.994 516.572 419.334 516.141 419.652 515.681C420.064 515.087 420.124 515.029 420.629 514.394C420.833 514.149 421.036 513.899 421.233 513.654C421.228 513.654 421.14 513.718 421.299 513.59C421.447 513.48 421.596 513.363 421.738 513.247C422.172 512.915 422.589 512.571 423.045 512.268C424.055 511.599 425.043 511.051 426.119 510.515C427.524 510.125 428.924 509.741 430.34 509.409C430.773 509.31 431.207 509.205 431.635 509.106C431.679 509.094 431.701 509.089 431.718 509.083C431.866 509.065 432.02 509.048 432.168 509.03C432.969 508.943 433.771 508.85 434.572 508.762C434.857 508.791 435.011 508.588 435.028 508.349C435.039 508.285 435.039 508.215 435.028 508.145C435.011 507.912 434.863 507.708 434.572 507.737C433.771 507.65 432.969 507.557 432.168 507.464C432.02 507.446 431.866 507.429 431.718 507.411C431.701 507.411 431.679 507.405 431.635 507.394C431.207 507.295 430.773 507.19 430.34 507.091C428.902 506.747 427.502 506.311 426.091 505.862C425.542 505.629 424.999 505.39 424.461 505.152C424.428 505.14 424.362 505.099 424.335 505.082C424.263 505.035 424.186 504.983 424.115 504.936C423.758 504.697 423.402 504.464 423.045 504.226C422.957 504.167 422.869 504.109 422.781 504.051C422.776 504.051 422.869 504.133 422.71 503.999C422.408 503.742 422.101 503.48 421.799 503.224C421.382 502.869 421.041 502.514 420.679 502.094C420.459 501.85 420.251 501.605 420.031 501.355C420.026 501.349 420.026 501.349 420.02 501.343C419.932 501.203 419.845 501.063 419.751 500.929C419.444 500.452 419.082 499.992 418.84 499.474C418.675 499.13 418.516 498.781 418.351 498.443C418.28 498.28 418.203 498.122 418.126 497.959C418.121 497.948 418.115 497.936 418.11 497.924C418.104 497.913 418.104 497.901 418.099 497.884C417.896 497.249 417.698 496.614 417.501 495.979C417.484 495.939 417.462 495.892 417.44 495.857C417.16 494.82 416.908 493.79 416.721 492.712C416.639 492.235 416.562 491.757 416.48 491.28C416.463 491.163 416.452 491.099 416.458 491.122C416.441 491 416.43 490.878 416.419 490.761C416.331 489.876 416.244 488.991 416.15 488.106C416.15 482.853 416.15 477.605 416.15 472.352C416.15 453.542 416.15 434.725 416.15 415.915C416.15 407.179 416.15 398.444 416.15 389.708C416.15 389.341 416.15 388.969 416.15 388.596C416.238 387.746 416.32 386.895 416.408 386.051C416.425 385.882 416.441 385.719 416.458 385.556C416.463 385.538 416.463 385.515 416.469 385.486C416.557 384.985 416.639 384.484 416.721 383.983C416.908 382.912 417.16 381.875 417.44 380.844C417.462 380.804 417.484 380.763 417.501 380.716C417.951 379.289 418.187 378.591 418.769 377.286C418.994 376.774 419.334 376.343 419.652 375.883C420.07 375.289 420.124 375.225 420.629 374.596C420.833 374.351 421.036 374.101 421.233 373.856C421.228 373.856 421.14 373.92 421.299 373.792C421.447 373.675 421.596 373.565 421.738 373.448C422.172 373.116 422.589 372.767 423.045 372.47C424.055 371.8 425.043 371.253 426.119 370.711C427.524 370.327 428.924 369.937 430.34 369.605C430.773 369.506 431.207 369.401 431.635 369.302C431.679 369.29 431.701 369.284 431.718 369.284C431.866 369.267 432.02 369.249 432.168 369.232C432.969 369.139 433.771 369.046 434.572 368.958C458.812 368.958 483.053 368.958 507.293 368.958C513.951 368.958 520.61 368.958 527.268 368.958C527.614 368.958 527.971 368.958 528.316 368.958C529.118 369.051 529.919 369.139 530.721 369.232C530.874 369.249 531.023 369.267 531.171 369.284C531.187 369.284 531.209 369.29 531.248 369.302C531.676 369.395 532.104 369.494 532.532 369.593C533.992 369.925 535.43 370.315 536.874 370.717C537.911 371.235 538.878 371.759 539.849 372.406C539.953 372.476 540.063 372.546 540.167 372.616C540.2 372.645 540.222 372.65 540.228 372.656C540.228 372.656 540.233 372.662 540.239 372.662C540.541 372.913 540.843 373.169 541.145 373.419C541.584 373.786 541.93 374.165 542.308 374.596C542.522 374.84 542.736 375.091 542.956 375.335C542.956 375.347 542.967 375.353 542.972 375.364C543.066 375.516 543.159 375.667 543.258 375.813C543.554 376.29 543.867 376.756 544.125 377.263C544.295 377.612 544.471 377.956 544.647 378.305C544.718 378.457 544.789 378.602 544.866 378.748C544.872 378.76 544.877 378.771 544.883 378.777C544.888 378.789 544.888 378.8 544.894 378.812C545.069 379.371 545.245 379.93 545.426 380.489C545.706 381.648 545.975 382.813 546.211 383.983C546.31 384.461 546.409 384.944 546.502 385.422C546.535 385.573 546.54 385.643 546.529 385.509C546.54 385.655 546.557 385.795 546.573 385.94C546.661 386.825 546.749 387.711 546.842 388.596C546.837 388.637 546.837 388.677 546.842 388.712C546.842 389.044 546.842 389.376 546.842 389.708C546.842 390.366 547.803 390.366 547.803 389.708C547.803 389.376 547.803 389.044 547.803 388.712C547.808 388.677 547.808 388.637 547.803 388.596C547.891 387.746 547.973 386.895 548.061 386.045C548.077 385.888 548.094 385.725 548.11 385.567C548.116 385.55 548.121 385.527 548.127 385.486C548.231 384.985 548.33 384.484 548.429 383.983C548.736 382.463 549.153 380.99 549.57 379.493C549.587 379.429 549.592 379.371 549.592 379.319C549.636 379.179 549.68 379.033 549.73 378.888C549.746 378.829 549.845 378.614 549.741 378.824C549.79 378.725 549.839 378.62 549.894 378.515C550.086 378.131 550.279 377.746 550.471 377.362C550.723 376.861 551.02 376.407 551.316 375.935C551.722 375.289 551.783 375.23 552.337 374.601C552.683 374.2 553.001 373.833 553.402 373.501C553.693 373.256 553.984 373.017 554.275 372.773C554.319 372.738 554.604 372.534 554.401 372.668C554.5 372.604 554.599 372.54 554.697 372.47C555.707 371.806 556.695 371.253 557.766 370.717C559.171 370.333 560.56 369.948 561.976 369.622C562.426 369.523 562.882 369.418 563.332 369.319C563.475 369.284 563.54 369.279 563.414 369.29C563.551 369.273 563.683 369.261 563.82 369.244C564.655 369.15 565.489 369.057 566.323 368.958C566.62 368.958 566.774 368.731 566.79 368.492C566.812 368.323 566.774 368.137 566.62 368.038ZM151.676 249.921C151.676 254.802 151.676 259.682 151.676 264.556C151.676 283.373 151.676 302.183 151.676 320.994C151.676 330.102 151.676 339.211 151.676 348.313C151.588 349.163 151.506 350.014 151.418 350.864C151.401 351.027 151.385 351.19 151.368 351.353C151.368 351.365 151.363 351.388 151.357 351.423C151.27 351.93 151.182 352.436 151.094 352.943C150.902 354.02 150.644 355.063 150.364 356.111C150.353 356.14 150.342 356.164 150.331 356.198C150.133 356.792 149.936 357.386 149.738 357.986C149.727 358.004 149.722 358.021 149.722 358.033C149.661 358.161 149.606 358.289 149.546 358.417C149.37 358.813 149.195 359.215 149.019 359.611C148.805 360.089 148.47 360.496 148.174 360.916C147.762 361.516 147.707 361.574 147.202 362.203C147.043 362.401 146.889 362.587 146.73 362.768C146.626 362.82 146.532 362.919 146.478 363.036C146.39 363.129 146.296 363.216 146.192 363.303C145.89 363.56 145.583 363.816 145.281 364.072C145.188 364.154 145.094 364.229 145.001 364.311C145.193 364.148 144.913 364.357 144.869 364.387C144.556 364.596 144.232 364.806 143.92 365.016C143.777 365.109 143.64 365.202 143.497 365.295C143.459 365.318 143.442 365.33 143.437 365.336V365.342C142.871 365.586 142.306 365.831 141.74 366.081C140.324 366.524 138.946 366.961 137.492 367.246C136.087 367.526 134.676 367.735 133.26 367.951C133.221 367.951 133.183 367.951 133.15 367.951C132.804 367.951 132.458 367.951 132.112 367.951C108.256 367.951 84.3949 367.951 60.5444 367.951C53.5676 367.951 46.6018 367.951 39.6306 367.951C39.5976 367.951 39.5592 367.951 39.5263 367.951C38.1101 367.741 36.6993 367.526 35.2996 367.258C33.801 366.978 32.3903 366.536 30.9302 366.075C30.3868 365.843 29.8433 365.604 29.2999 365.365C29.267 365.353 29.2011 365.313 29.1791 365.295C29.1023 365.249 29.0254 365.196 28.9541 365.15C28.5973 364.911 28.2405 364.678 27.8892 364.439C27.7959 364.381 27.708 364.323 27.6202 364.264C27.6257 364.264 27.7026 364.34 27.5489 364.2C27.2799 363.956 27.0109 363.711 26.7474 363.472C26.3357 363.1 25.9844 362.727 25.6222 362.308C25.3861 362.04 25.1501 361.772 24.914 361.504C24.8976 361.486 24.8921 361.475 24.8811 361.469C24.8043 361.341 24.7274 361.219 24.6451 361.096C24.3432 360.613 24.0083 360.141 23.7558 359.629C23.5857 359.285 23.4155 358.947 23.2453 358.604C23.163 358.441 23.0807 358.278 22.9983 358.114C22.9709 358.062 22.9544 358.033 22.9489 358.021C22.7733 357.503 22.6031 356.985 22.4329 356.466C22.153 355.296 21.884 354.119 21.637 352.943C21.5327 352.46 21.4339 351.976 21.3351 351.493C21.3022 351.341 21.2912 351.26 21.3077 351.4C21.2912 351.254 21.2747 351.114 21.2637 350.969C21.1704 350.084 21.0826 349.198 20.9948 348.313C21.0003 348.272 21.0003 348.232 20.9948 348.197C20.9948 340.556 20.9948 332.921 20.9948 325.28C20.9948 313.412 20.9948 301.537 20.9948 289.662C20.9948 278.213 20.9948 266.764 20.9948 255.308C20.9948 253.515 20.9948 251.715 20.9948 249.921C20.9948 249.589 20.9948 249.258 20.9948 248.926C21.0003 248.891 21.0003 248.85 20.9948 248.803C21.0771 247.959 21.1649 247.109 21.2528 246.258C21.2692 246.095 21.2857 245.938 21.3022 245.775C21.3022 245.763 21.3077 245.74 21.3186 245.699C21.4065 245.245 21.4998 244.791 21.5931 244.337C21.8401 243.114 22.1255 241.902 22.4165 240.685C22.5811 240.161 22.7513 239.625 22.916 239.101C22.9324 239.043 23.0367 238.821 22.927 239.037C22.9819 238.932 23.0313 238.827 23.0807 238.728C23.2728 238.344 23.4649 237.96 23.657 237.575C23.9095 237.074 24.2059 236.614 24.5024 236.143C24.9086 235.496 24.9744 235.438 25.5233 234.809C25.8911 234.39 26.2424 233.999 26.6486 233.627C26.9286 233.376 27.203 233.12 27.483 232.87C27.5324 232.823 27.7904 232.648 27.5873 232.765C27.6861 232.707 27.7849 232.648 27.8837 232.59C28.8937 231.984 29.9092 231.449 30.9522 230.924C32.3574 230.54 33.7461 230.156 35.1624 229.835C35.6125 229.731 36.0626 229.632 36.5182 229.527C36.6609 229.492 36.7268 229.486 36.6005 229.498C36.7378 229.486 36.8695 229.469 37.0067 229.457C37.8411 229.358 38.6754 229.265 39.5153 229.166C46.75 229.166 53.9903 229.166 61.225 229.166C72.423 229.166 83.6099 229.166 94.8079 229.166C105.594 229.166 116.386 229.166 127.178 229.166C128.824 229.166 130.466 229.166 132.107 229.166C132.497 229.166 132.881 229.166 133.265 229.166C134.067 229.259 134.868 229.352 135.669 229.439C135.818 229.457 135.971 229.474 136.119 229.492C136.13 229.498 136.158 229.503 136.196 229.515C136.63 229.614 137.064 229.719 137.492 229.818C138.913 230.15 140.308 230.534 141.718 230.924C142.728 231.431 143.711 231.949 144.694 232.532C144.798 232.596 144.902 232.66 145.006 232.718C145.045 232.741 145.061 232.753 145.067 232.753C145.067 232.753 145.072 232.753 145.078 232.759C145.385 233.021 145.687 233.277 145.995 233.539C146.428 233.906 146.752 234.25 147.114 234.698C147.334 234.966 147.548 235.234 147.768 235.502C147.784 235.525 147.789 235.537 147.8 235.549C147.8 235.554 147.806 235.554 147.811 235.566C147.91 235.706 148.004 235.846 148.102 235.985C148.421 236.44 148.789 236.882 149.019 237.4C149.178 237.762 149.337 238.117 149.497 238.472C149.568 238.629 149.639 238.787 149.705 238.944C149.711 238.955 149.711 238.961 149.716 238.967C149.722 238.979 149.727 238.996 149.733 239.019C149.93 239.654 150.133 240.289 150.331 240.924C150.342 240.97 150.364 241.011 150.391 241.052C150.671 242.083 150.924 243.119 151.105 244.191C151.187 244.668 151.27 245.146 151.346 245.629C151.368 245.752 151.374 245.816 151.374 245.775C151.385 245.897 151.401 246.02 151.412 246.142C151.5 247.033 151.588 247.918 151.681 248.803C151.676 249.182 151.676 249.549 151.676 249.921ZM283.433 388.73C283.433 389.056 283.433 389.388 283.433 389.72C283.433 397.052 283.433 404.378 283.433 411.71C283.433 423.59 283.433 435.471 283.433 447.351C283.433 458.807 283.433 470.262 283.433 481.717C283.433 483.808 283.433 485.904 283.433 487.995C283.427 488.036 283.427 488.071 283.433 488.117C283.345 488.962 283.263 489.812 283.175 490.662C283.158 490.825 283.142 490.983 283.131 491.146C283.125 491.157 283.12 491.181 283.109 491.221C283.01 491.722 282.906 492.229 282.807 492.724C282.5 494.25 282.082 495.723 281.665 497.22C281.649 497.278 281.643 497.336 281.649 497.389C281.599 497.534 281.555 497.68 281.512 497.82C281.49 497.884 281.391 498.087 281.501 497.884C281.44 497.988 281.385 498.099 281.33 498.198C281.133 498.577 280.935 498.955 280.732 499.328C280.469 499.829 280.178 500.306 279.892 500.784C279.81 500.924 279.728 501.063 279.645 501.203C279.612 501.267 279.415 501.512 279.579 501.343C279.354 501.582 279.129 501.82 278.904 502.053C278.564 502.415 278.229 502.77 277.867 503.102C277.587 503.358 277.301 503.614 277.016 503.876C276.928 503.952 276.84 504.034 276.758 504.109C276.939 503.946 276.67 504.156 276.626 504.185C276.308 504.395 275.989 504.604 275.671 504.814C275.534 504.907 275.391 505 275.254 505.093C275.215 505.123 275.199 505.134 275.194 505.134C275.194 505.14 275.194 505.14 275.194 505.14C274.623 505.385 274.063 505.635 273.497 505.88C272.087 506.322 270.698 506.759 269.26 507.085C268.81 507.19 268.359 507.295 267.904 507.394C267.761 507.429 267.695 507.435 267.822 507.423C267.69 507.435 267.553 507.452 267.415 507.469C266.581 507.563 265.747 507.656 264.907 507.749C264.868 507.749 264.83 507.749 264.797 507.749C264.484 507.749 264.171 507.749 263.864 507.749C246.37 507.749 228.876 507.749 211.382 507.749C198.01 507.749 184.644 507.749 171.278 507.749C171.245 507.749 171.206 507.749 171.162 507.749C170.361 507.662 169.565 507.569 168.764 507.481C168.61 507.464 168.462 507.446 168.308 507.429C168.297 507.423 168.275 507.417 168.231 507.405C167.803 507.306 167.369 507.202 166.936 507.103C165.498 506.765 164.098 506.322 162.682 505.88C162.127 505.652 161.578 505.425 161.024 505.192C160.947 505.163 160.876 505.134 160.804 505.105C161.029 505.198 160.733 505.024 160.684 504.994C160.338 504.75 159.992 504.505 159.646 504.261C159.553 504.197 159.465 504.133 159.372 504.068C159.366 504.063 159.465 504.15 159.306 504.01C158.998 503.754 158.697 503.492 158.389 503.236C157.972 502.88 157.637 502.525 157.269 502.106C157.055 501.861 156.841 501.617 156.633 501.372C156.627 501.366 156.622 501.36 156.622 501.355C156.528 501.215 156.44 501.075 156.353 500.941C156.045 500.464 155.683 500.003 155.436 499.485C155.277 499.142 155.112 498.798 154.953 498.454C154.876 498.291 154.799 498.134 154.728 497.971C154.717 497.959 154.711 497.948 154.706 497.942C154.706 497.924 154.7 497.913 154.695 497.895C154.497 497.261 154.3 496.632 154.097 495.997C154.08 495.95 154.064 495.909 154.042 495.869C153.756 494.832 153.504 493.801 153.323 492.724C153.059 491.192 152.851 489.655 152.642 488.106C152.647 488.071 152.647 488.03 152.642 488.001C152.642 482.789 152.642 477.576 152.642 472.364C152.642 453.554 152.642 434.743 152.642 415.926C152.642 407.197 152.642 398.461 152.642 389.72C152.642 389.394 152.642 389.062 152.642 388.73C152.647 388.695 152.647 388.654 152.642 388.613C152.84 387.117 153.043 385.626 153.295 384.141C153.487 383.017 153.751 381.933 154.042 380.85C154.064 380.815 154.086 380.775 154.097 380.728C154.547 379.307 154.788 378.608 155.365 377.304C155.595 376.785 155.935 376.354 156.254 375.9C156.665 375.3 156.72 375.242 157.225 374.613C157.428 374.363 157.626 374.118 157.829 373.868C157.824 373.873 157.736 373.932 157.895 373.804C158.043 373.693 158.191 373.576 158.334 373.466C158.768 373.128 159.196 372.784 159.646 372.47C160.102 372.144 160.557 371.742 161.062 371.503C161.606 371.247 162.155 370.991 162.698 370.734C164.109 370.344 165.514 369.954 166.941 369.622C167.369 369.517 167.803 369.418 168.237 369.313C168.275 369.308 168.303 369.302 168.314 369.296C168.467 369.279 168.615 369.261 168.764 369.244C169.565 369.156 170.367 369.063 171.168 368.976C180.812 368.976 190.462 368.976 200.107 368.976C221.361 368.976 242.61 368.976 263.864 368.976C264.21 368.976 264.561 368.976 264.912 368.976C265.714 369.063 266.515 369.156 267.317 369.244C267.47 369.261 267.618 369.279 267.772 369.296C267.783 369.302 267.805 369.308 267.843 369.313C268.272 369.412 268.7 369.511 269.128 369.605C270.588 369.937 272.026 370.333 273.47 370.729C274.507 371.247 275.473 371.777 276.445 372.423C276.555 372.493 276.659 372.563 276.763 372.633C276.802 372.656 276.818 372.668 276.824 372.668C276.829 372.674 276.829 372.674 276.835 372.68C277.137 372.93 277.444 373.186 277.746 373.437C278.18 373.798 278.525 374.182 278.904 374.613C279.124 374.858 279.338 375.102 279.552 375.347C279.557 375.358 279.563 375.37 279.574 375.382C279.667 375.533 279.76 375.679 279.854 375.83C280.156 376.308 280.469 376.768 280.721 377.274C280.897 377.624 281.072 377.973 281.243 378.323C281.319 378.468 281.391 378.614 281.462 378.76C281.468 378.777 281.473 378.783 281.479 378.794C281.484 378.806 281.484 378.818 281.49 378.829C281.544 378.998 281.599 379.167 281.649 379.33C281.649 379.389 281.649 379.441 281.671 379.505C282.088 381.002 282.5 382.475 282.807 383.995C282.906 384.473 282.999 384.956 283.098 385.434C283.131 385.585 283.136 385.655 283.125 385.527C283.136 385.666 283.153 385.806 283.169 385.952C283.257 386.837 283.345 387.722 283.438 388.607C283.427 388.648 283.427 388.689 283.433 388.73ZM415.184 389.72C415.184 408.245 415.184 426.764 415.184 445.284C415.184 459.523 415.184 473.762 415.184 487.995C415.179 488.03 415.179 488.071 415.184 488.106C414.981 489.602 414.778 491.099 414.531 492.584C414.339 493.708 414.075 494.785 413.784 495.869C413.763 495.909 413.746 495.944 413.73 495.991C413.537 496.602 413.345 497.214 413.153 497.82C413.137 497.872 413.038 498.105 413.142 497.884C413.087 498 413.038 498.111 412.983 498.227C412.796 498.617 412.615 499.008 412.429 499.398C412.187 499.904 411.852 500.359 411.545 500.83C411.463 500.959 411.375 501.087 411.292 501.215C411.259 501.267 411.062 501.523 411.221 501.337C411.001 501.593 410.776 501.85 410.557 502.106C410.222 502.484 409.915 502.822 409.53 503.148C409.239 503.393 408.949 503.643 408.663 503.888C408.575 503.964 408.487 504.034 408.405 504.109C408.597 503.94 408.312 504.156 408.273 504.179C407.955 504.395 407.637 504.604 407.318 504.814C407.176 504.907 407.038 505 406.896 505.093C406.863 505.117 406.846 505.128 406.841 505.134C406.841 505.134 406.841 505.134 406.835 505.134C406.27 505.379 405.71 505.629 405.145 505.874C403.772 506.305 402.422 506.736 401.022 507.068C400.567 507.172 400.116 507.283 399.661 507.388C399.518 507.423 399.441 507.435 399.573 507.417C399.436 507.435 399.304 507.452 399.167 507.464C398.332 507.563 397.498 507.656 396.664 507.749C396.62 507.743 396.587 507.743 396.548 507.749C396.203 507.749 395.857 507.749 395.511 507.749C390.911 507.749 386.311 507.749 381.711 507.749C363.976 507.749 346.24 507.749 328.504 507.749C320.007 507.749 311.515 507.749 303.024 507.749C302.991 507.743 302.952 507.743 302.908 507.749C302.107 507.656 301.311 507.569 300.51 507.475C300.356 507.458 300.208 507.44 300.054 507.423C300.043 507.423 300.021 507.417 299.983 507.405C299.511 507.301 299.039 507.19 298.566 507.085C297.128 506.759 295.74 506.316 294.329 505.874C293.78 505.641 293.242 505.402 292.699 505.163C292.666 505.152 292.6 505.111 292.578 505.093C292.501 505.047 292.424 504.994 292.347 504.942C291.996 504.709 291.639 504.47 291.282 504.237C291.194 504.179 291.107 504.121 291.019 504.063C291.024 504.063 291.101 504.138 290.947 503.999C290.646 503.725 290.349 503.451 290.047 503.177C289.652 502.816 289.29 502.444 288.922 502.053C288.708 501.826 288.494 501.599 288.28 501.366C288.274 501.36 288.269 501.349 288.263 501.343C288.175 501.192 288.088 501.046 288 500.895C287.714 500.405 287.412 499.922 287.143 499.415C286.962 499.078 286.787 498.74 286.606 498.408C286.529 498.256 286.446 498.105 286.369 497.959C286.358 497.942 286.353 497.93 286.348 497.919C286.348 497.913 286.342 497.901 286.342 497.889C286.287 497.721 286.232 497.552 286.183 497.383C286.183 497.33 286.177 497.272 286.161 497.214C285.744 495.717 285.332 494.244 285.019 492.724C284.926 492.24 284.827 491.763 284.734 491.285C284.701 491.128 284.695 491.064 284.706 491.192C284.69 491.052 284.679 490.913 284.662 490.767C284.575 489.882 284.487 488.997 284.393 488.111C284.399 488.071 284.399 488.03 284.393 487.989C284.393 480.331 284.393 472.673 284.393 465.009C284.393 453.128 284.393 441.248 284.393 429.362C284.393 417.907 284.393 406.457 284.393 395.002C284.393 393.237 284.393 391.479 284.393 389.714C284.393 389.382 284.393 389.05 284.393 388.718C284.399 388.683 284.399 388.642 284.393 388.602C284.481 387.751 284.564 386.901 284.651 386.057C284.668 385.894 284.684 385.736 284.701 385.573C284.701 385.562 284.712 385.538 284.717 385.498C284.816 384.997 284.92 384.49 285.019 383.995C285.332 382.469 285.744 380.996 286.161 379.499C286.177 379.441 286.183 379.383 286.183 379.33C286.227 379.185 286.271 379.039 286.315 378.899C286.337 378.841 286.435 378.62 286.326 378.835C286.38 378.73 286.43 378.631 286.485 378.527C286.677 378.142 286.869 377.758 287.061 377.368C287.308 376.867 287.61 376.413 287.906 375.941C288.307 375.294 288.373 375.236 288.927 374.607C289.273 374.211 289.592 373.844 289.987 373.512C290.283 373.268 290.574 373.023 290.865 372.779C290.909 372.744 291.194 372.54 290.991 372.68C291.09 372.61 291.189 372.546 291.288 372.482C292.292 371.812 293.286 371.259 294.356 370.723C295.756 370.338 297.15 369.954 298.566 369.634C299.017 369.529 299.467 369.43 299.922 369.325C300.065 369.29 300.131 369.284 300.005 369.296C300.136 369.284 300.274 369.267 300.411 369.255C301.245 369.156 302.08 369.063 302.914 368.97C305.878 368.97 308.848 368.97 311.812 368.97C339.713 368.97 367.609 368.97 395.511 368.97C395.895 368.97 396.279 368.97 396.664 368.97C397.465 369.057 398.267 369.15 399.068 369.238C399.222 369.255 399.37 369.273 399.524 369.29C399.535 369.296 399.557 369.302 399.6 369.308C400.029 369.412 400.462 369.511 400.896 369.616C402.312 369.948 403.712 370.333 405.117 370.723C406.155 371.241 407.115 371.771 408.092 372.418C408.542 372.715 408.959 373.046 409.388 373.378C409.613 373.553 409.838 373.728 410.057 373.897C409.865 373.751 410.096 373.984 410.134 374.031C410.26 374.188 410.387 374.339 410.513 374.497C410.732 374.764 410.947 375.032 411.166 375.306C411.183 375.324 411.194 375.335 411.199 375.341C411.205 375.347 411.21 375.358 411.216 375.364C411.309 375.504 411.408 375.644 411.501 375.778C411.819 376.238 412.193 376.68 412.418 377.199C412.577 377.554 412.736 377.915 412.895 378.27C412.967 378.428 413.038 378.585 413.104 378.742C413.109 378.754 413.115 378.76 413.115 378.771C413.12 378.777 413.126 378.794 413.131 378.824C413.334 379.453 413.532 380.087 413.73 380.722C413.746 380.769 413.763 380.809 413.79 380.844C414.07 381.887 414.322 382.918 414.504 383.989C414.762 385.527 414.976 387.064 415.184 388.607C415.179 388.648 415.179 388.683 415.184 388.718C415.184 389.062 415.184 389.394 415.184 389.72ZM546.837 248.926C546.837 249.258 546.837 249.589 546.837 249.921C546.837 257.224 546.837 264.533 546.837 271.836C546.837 283.711 546.837 295.585 546.837 307.454C546.837 318.909 546.837 330.359 546.837 341.808C546.837 343.94 546.837 346.071 546.837 348.197C546.831 348.232 546.831 348.272 546.837 348.313C546.749 349.163 546.667 350.014 546.579 350.864C546.562 351.027 546.546 351.184 546.529 351.341C546.524 351.359 546.518 351.382 546.508 351.429C546.403 351.93 546.299 352.436 546.195 352.943C545.948 354.119 545.673 355.29 545.399 356.461C545.229 356.967 545.058 357.474 544.888 357.981C544.883 357.992 544.883 358.004 544.877 358.015C544.817 358.138 544.756 358.26 544.691 358.388C544.498 358.773 544.306 359.157 544.114 359.541C543.884 360.007 543.598 360.432 543.324 360.869C542.918 361.516 542.852 361.574 542.303 362.203C541.962 362.593 541.644 362.966 541.265 363.303C540.985 363.56 540.7 363.816 540.42 364.072C540.332 364.154 540.244 364.229 540.156 364.311C540.343 364.142 540.069 364.357 540.025 364.387C539.706 364.596 539.388 364.806 539.07 365.016C538.932 365.109 538.79 365.202 538.652 365.295C538.614 365.318 538.598 365.33 538.598 365.336C538.592 365.336 538.592 365.342 538.592 365.342C538.027 365.586 537.461 365.831 536.896 366.081C535.485 366.524 534.113 366.961 532.658 367.234C531.209 367.508 529.76 367.735 528.3 367.957C528.267 367.951 528.229 367.951 528.201 367.957C527.888 367.957 527.575 367.957 527.262 367.957C507.298 367.957 487.329 367.957 467.359 367.957C456.463 367.957 445.572 367.957 434.676 367.957C434.643 367.951 434.605 367.951 434.572 367.957C433.156 367.741 431.745 367.526 430.334 367.246C428.88 366.961 427.502 366.524 426.08 366.081C425.537 365.843 424.993 365.604 424.45 365.371C424.423 365.353 424.357 365.318 424.335 365.301C424.258 365.249 424.181 365.202 424.104 365.15C423.753 364.917 423.396 364.678 423.039 364.445C422.951 364.387 422.864 364.328 422.77 364.264C422.781 364.276 422.847 364.334 422.693 364.206C422.408 363.961 422.117 363.717 421.832 363.472C421.645 363.315 421.486 363.164 421.332 363.006C421.277 362.913 421.2 362.826 421.107 362.779C420.975 362.628 420.849 362.476 420.712 362.308C420.492 362.04 420.273 361.772 420.059 361.504C420.042 361.486 420.031 361.469 420.026 361.463C419.943 361.352 419.866 361.242 419.795 361.131C419.471 360.671 419.071 360.217 418.84 359.693C418.686 359.349 418.533 359.005 418.379 358.656C418.302 358.481 418.225 358.307 418.148 358.132C418.126 358.085 418.115 358.056 418.104 358.039C417.901 357.427 417.698 356.81 417.495 356.198C417.484 356.169 417.468 356.14 417.457 356.117C417.177 355.069 416.919 354.02 416.732 352.943C416.65 352.46 416.568 351.982 416.48 351.493C416.458 351.365 416.447 351.289 416.452 351.359C416.441 351.231 416.425 351.103 416.414 350.975C416.326 350.089 416.238 349.204 416.145 348.319C416.145 329.427 416.145 310.535 416.145 291.643C416.145 277.736 416.145 263.834 416.145 249.927C416.145 249.555 416.145 249.182 416.145 248.809C416.233 247.959 416.315 247.114 416.403 246.264C416.419 246.095 416.436 245.932 416.452 245.769C416.458 245.752 416.458 245.734 416.469 245.699C416.551 245.198 416.633 244.698 416.721 244.197C416.902 243.125 417.155 242.094 417.435 241.058C417.462 241.017 417.479 240.982 417.495 240.93C417.945 239.509 418.187 238.81 418.763 237.499C418.988 236.987 419.329 236.556 419.652 236.096C420.064 235.502 420.119 235.444 420.629 234.809C420.986 234.366 421.305 233.994 421.733 233.633C422.029 233.376 422.326 233.126 422.628 232.87C422.671 232.829 422.951 232.648 422.748 232.771C422.842 232.712 422.94 232.654 423.039 232.596C424.055 231.99 425.065 231.449 426.113 230.924C427.518 230.54 428.918 230.156 430.334 229.824C430.768 229.719 431.202 229.62 431.635 229.515C431.674 229.509 431.696 229.503 431.712 229.498C431.86 229.48 432.014 229.463 432.162 229.445C432.964 229.352 433.765 229.265 434.567 229.172C441.84 229.172 449.113 229.172 456.386 229.172C467.578 229.172 478.771 229.172 489.963 229.172C500.755 229.172 511.541 229.172 522.333 229.172C523.98 229.172 525.621 229.172 527.262 229.172C527.614 229.172 527.965 229.172 528.316 229.172C529.112 229.265 529.914 229.358 530.715 229.445C530.869 229.463 531.017 229.48 531.171 229.498C531.187 229.498 531.204 229.509 531.248 229.515C531.67 229.614 532.098 229.707 532.532 229.806C533.987 230.138 535.425 230.528 536.874 230.924C537.884 231.431 538.867 231.955 539.849 232.538C539.953 232.602 540.063 232.66 540.162 232.724C540.189 232.741 540.206 232.747 540.217 232.753C540.217 232.753 540.222 232.759 540.228 232.765C540.513 233.027 540.799 233.283 541.084 233.545C541.49 233.912 541.847 234.285 542.209 234.704C542.445 234.972 542.682 235.24 542.918 235.508C542.934 235.525 542.94 235.537 542.951 235.543C542.956 235.554 542.961 235.566 542.972 235.578C543.066 235.729 543.159 235.88 543.252 236.026C543.554 236.504 543.867 236.97 544.12 237.47C544.295 237.82 544.466 238.169 544.647 238.519C544.718 238.664 544.789 238.81 544.861 238.955C544.872 238.967 544.877 238.979 544.877 238.99C544.883 239.002 544.888 239.014 544.894 239.025C545.069 239.584 545.245 240.143 545.421 240.703C545.706 241.867 545.975 243.02 546.211 244.197C546.31 244.674 546.403 245.152 546.502 245.629C546.535 245.787 546.54 245.856 546.529 245.723C546.54 245.862 546.557 246.008 546.568 246.148C546.661 247.039 546.749 247.924 546.837 248.803C546.831 248.85 546.831 248.891 546.837 248.926Z" fill="#FAA307"/>
<path d="M336.961 313.162V314.662H338.461H356.894V331.163H211.837V314.662H230.27H231.77V313.162V256.161H336.961V313.162ZM315.681 301.662H317.181V300.162V280.661V279.161H315.681H253.05H251.55V280.661V300.162V301.662H253.05H315.681Z" stroke="#FAA307" stroke-width="3"/>
<path d="M385.006 31.2746L385.144 29.6476C385.622 24.0194 385.9 18.3956 385.935 12.7756C318.87 -2.25855 249.874 -2.25854 182.809 12.7757C182.843 18.3975 183.109 24.0214 183.587 29.6476L183.725 31.2746H182.092H140.67L141.671 40.5661C141.671 40.5663 141.671 40.5664 141.671 40.5666C145.218 73.4033 154.497 105.317 169.269 135.429L169.27 135.43C170.336 137.606 171.441 139.797 172.561 141.942L385.006 31.2746ZM385.006 31.2746H386.638H428.074H385.006ZM184.573 133.339L184.573 133.34C189.357 142.495 198.244 148.278 207.842 148.278H226.161H229.15L227.363 145.882C206.98 118.54 192.358 84.4282 186.132 49.0155L185.914 47.7752H184.655H158.553H156.809L157.07 49.4993C161.12 76.3061 169.316 102.407 181.478 127.224L181.48 127.228C182.486 129.267 183.522 131.325 184.573 133.339ZM341.367 145.882L339.581 148.278H342.57H360.902C370.5 148.278 379.387 142.496 384.158 133.339C385.206 131.331 386.256 129.272 387.253 127.225C399.428 102.407 407.61 76.3059 411.674 49.5001L411.936 47.7752H410.191H384.076H382.816L382.598 49.016C376.386 84.428 361.751 118.54 341.367 145.882Z" stroke="#FAA307" stroke-width="3"/>
</svg>
