<svg width="355" height="534" viewBox="0 0 355 534" fill="none" xmlns="http://www.w3.org/2000/svg">
<path d="M354.558 230.557C354.777 230.296 354.782 229.994 354.678 229.749C354.563 229.416 354.261 229.166 353.917 229.244C353.777 229.265 353.636 229.333 353.516 229.473C352.001 230.598 350.511 231.703 348.917 232.703C347.641 233.499 346.339 234.208 345.016 234.911C344.813 235.005 344.615 235.104 344.412 235.203C344.178 235.312 343.949 235.426 343.72 235.536C343.662 235.567 343.214 235.739 343.548 235.63C342.876 235.854 342.214 236.109 341.527 236.286C341.11 236.39 340.693 236.499 340.277 236.604C340.115 236.645 339.954 236.692 339.787 236.729C340.147 236.64 339.652 236.744 339.579 236.755C338.813 236.843 338.063 236.932 337.292 236.932C336.6 236.932 335.912 236.926 335.214 236.869C334.121 236.77 333.99 236.744 332.839 236.515C332.068 236.359 331.334 236.098 330.589 235.859C330.506 235.833 330.464 235.817 330.443 235.817C330.246 235.718 330.042 235.624 329.834 235.531C329.475 235.359 329.11 235.192 328.751 235.02C327.157 234.093 325.584 233.203 324.084 232.135C323.568 231.765 323.053 231.4 322.537 231.031C322.475 230.984 322.095 230.687 322.397 230.937C322.272 230.838 322.157 230.739 322.032 230.635C321.167 229.921 320.303 229.203 319.438 228.489C319.178 228.27 318.881 228.265 318.631 228.369C318.298 228.484 318.048 228.786 318.126 229.13C318.147 229.27 318.214 229.411 318.355 229.531C319.48 231.041 320.584 232.525 321.589 234.124C322.605 235.744 323.485 237.411 324.376 239.109C325.397 241.999 326.058 244.484 325.818 247.343C325.72 248.437 325.699 248.572 325.501 249.718C325.371 250.463 325.147 251.176 324.943 251.9C324.923 251.958 324.766 252.421 324.912 252.093C324.834 252.26 324.766 252.421 324.688 252.588C324.511 252.999 324.329 253.411 324.152 253.828C323.97 254.234 323.751 254.63 323.527 255.02C322.699 256.374 321.865 257.718 320.949 259.02C320.605 259.52 320.256 260.02 319.902 260.52C319.855 260.583 319.574 260.942 319.818 260.645C319.72 260.765 319.615 260.89 319.522 261.01C318.803 261.869 318.084 262.734 317.365 263.598C315.084 265.76 312.798 267.911 310.516 270.072C304.303 275.953 298.084 281.833 291.865 287.713C282.657 296.421 273.449 305.13 264.24 313.838C252.985 324.479 241.735 335.124 230.48 345.77C218.131 357.453 205.772 369.14 193.417 380.817C180.907 392.65 168.397 404.484 155.886 416.312C144.167 427.4 132.449 438.484 120.725 449.567C110.74 459.015 100.751 468.463 90.7612 477.906C83.4539 484.817 76.1466 491.729 68.8341 498.64C65.1518 502.13 61.4643 505.614 57.7768 509.098C57.5164 509.348 57.2612 509.593 57.0008 509.838C55.2404 511.479 53.4904 513.083 51.6362 514.604C51.1987 514.963 50.7612 515.317 50.3289 515.677C50.3446 515.666 50.2664 515.723 50.1362 515.822C49.8341 516.041 49.5268 516.26 49.2248 516.479C48.3133 517.135 47.4279 517.822 46.4904 518.437C42.5841 520.999 38.5841 523.473 34.282 525.333C33.5477 525.65 32.8081 525.968 32.0685 526.286C31.782 526.411 31.5008 526.531 31.2091 526.656C31.1675 526.677 31.1258 526.692 31.0789 526.713C31.0685 526.718 31.0477 526.723 31.0164 526.739C29.6883 527.229 28.3654 527.713 27.0477 528.197C25.0164 528.942 22.8706 529.473 20.7716 529.984C19.73 530.234 18.6935 530.515 17.6362 530.718C16.8758 530.864 16.1102 531.005 15.3498 531.15C15.0008 531.213 14.6466 531.281 14.2977 531.348C14.1987 531.369 13.506 531.484 13.9435 531.427C11.5112 531.734 9.11538 532.01 6.66747 532.166C1.89663 532.458 -2.83774 532.265 -7.58774 531.791C-7.83774 531.765 -8.08774 531.744 -8.33774 531.718C-8.35858 531.718 -8.36899 531.718 -8.37941 531.713C-8.39504 531.713 -8.41587 531.708 -8.44191 531.703C-9.18149 531.593 -9.92629 531.479 -10.6659 531.369C-11.6867 531.208 -12.6919 531.057 -13.6971 530.843C-16.2388 530.291 -18.7232 529.666 -21.2284 528.989C-23.3169 528.416 -25.369 527.604 -27.3794 526.802C-28.0773 526.52 -28.7805 526.239 -29.4836 525.958C-29.5617 525.927 -30.0825 525.703 -29.7023 525.874C-29.9107 525.781 -30.119 525.687 -30.3325 525.593C-31.4732 525.072 -32.6815 524.624 -33.7909 524.031C-37.843 521.864 -41.843 519.609 -45.4992 516.812C-46.6034 515.968 -47.7023 515.124 -48.8065 514.281C-48.6607 514.395 -48.744 514.322 -48.9159 514.177C-49.1502 513.968 -49.3846 513.765 -49.6138 513.562C-50.2544 512.994 -50.895 512.432 -51.5305 511.869C-53.093 510.494 -54.6138 509.041 -56.0096 507.494C-57.7492 505.567 -59.4107 503.604 -61.0669 501.598C-61.093 501.567 -61.1086 501.546 -61.1242 501.531C-61.1294 501.525 -61.1294 501.52 -61.1346 501.51C-61.2857 501.307 -61.4315 501.104 -61.5773 500.9C-62.0825 500.203 -62.5877 499.505 -63.093 498.812C-63.6971 497.979 -64.2544 497.13 -64.8221 496.27C-67.4627 492.255 -69.6086 488.041 -71.5148 483.64C-71.7284 483.145 -71.9419 482.645 -72.1555 482.156C-71.994 482.536 -72.1971 482.015 -72.2284 481.932C-72.3638 481.552 -72.4992 481.171 -72.6294 480.791C-72.9992 479.755 -73.395 478.723 -73.7232 477.677C-74.5148 475.15 -75.1971 472.671 -75.7961 470.093C-76.0305 469.067 -76.2127 468.025 -76.4107 466.994C-76.5305 466.364 -76.6502 465.729 -76.77 465.098C-76.7752 465.067 -76.7805 465.046 -76.7857 465.036C-76.7857 465.025 -76.7857 465.015 -76.7909 464.999C-76.8325 464.656 -76.8742 464.312 -76.9159 463.973C-77.2388 461.427 -77.4419 458.916 -77.5982 456.359C-77.7388 454.156 -77.6711 451.921 -77.5617 449.718C-77.5096 448.661 -77.4732 447.604 -77.369 446.546C-77.2909 445.76 -77.2127 444.973 -77.1294 444.187C-77.0982 443.854 -77.0669 443.515 -77.0305 443.182C-77.0148 443.01 -76.9732 442.671 -77.0044 442.869C-76.3065 438.317 -75.4784 433.822 -74.0305 429.437C-73.2023 426.927 -72.3273 424.494 -71.343 422.041C-71.2596 421.838 -71.1815 421.635 -71.0982 421.432C-71.1711 421.609 -71.1242 421.505 -71.0305 421.296C-70.6815 420.583 -70.3377 419.864 -69.994 419.145C-69.5461 418.218 -69.0982 417.302 -68.6138 416.4C-67.4055 414.145 -66.119 411.984 -64.77 409.807C-64.1555 408.802 -63.4419 407.848 -62.7805 406.88C-62.6242 406.645 -62.4627 406.416 -62.3065 406.182C-62.2544 406.109 -62.2336 406.078 -62.2284 406.067C-61.7909 405.505 -61.3534 404.947 -60.9107 404.385C-57.9627 400.614 -54.6502 397.213 -51.145 393.953C-49.6971 392.604 -48.1242 391.411 -46.5721 390.182C-44.3065 388.046 -42.0409 385.906 -39.7752 383.765C-33.6034 377.942 -27.4315 372.119 -21.2596 366.291C-12.119 357.666 -2.97837 349.041 6.16226 340.416C17.3289 329.874 28.4956 319.338 39.6623 308.796C51.9227 297.229 64.1779 285.661 76.4331 274.093C88.8393 262.385 101.251 250.676 113.652 238.968C125.272 228.005 136.891 217.036 148.511 206.072C158.402 196.739 168.292 187.4 178.183 178.072C185.407 171.249 192.631 164.432 199.855 157.614C203.475 154.203 207.095 150.786 210.709 147.369C210.949 147.145 211.183 146.921 211.423 146.697C215.063 143.963 218.735 141.192 221.876 137.88C225.089 134.494 228.251 131.046 230.886 127.182C236.261 119.328 240.449 110.812 242.845 101.578C245.272 92.2494 246.058 82.765 245.225 73.166C244.813 68.416 243.839 63.791 242.657 59.1765C241.48 54.5827 239.652 50.2285 237.72 45.9056C235.839 41.6921 233.282 37.791 230.688 33.989C228.11 30.2233 225.079 26.666 221.798 23.4994C218.49 20.3171 215.032 17.0879 211.183 14.5619C207.298 12.015 203.329 9.41604 199.042 7.56709C194.673 5.67646 190.287 3.89521 185.657 2.71292C181.022 1.52542 176.329 0.640001 171.553 0.280626C166.766 -0.0787485 161.996 -0.130832 157.214 0.348335C152.438 0.822293 147.819 1.74417 143.167 2.93167C134.032 5.27542 125.506 9.7025 117.813 15.0619C115.657 16.5619 113.626 18.2025 111.667 19.9213C111.574 19.9525 111.48 20.0098 111.391 20.0931C110.756 20.6921 110.121 21.2963 109.485 21.8952C108.865 22.4681 108.256 23.041 107.652 23.6244C106.631 24.5879 105.61 25.5463 104.589 26.5098C98.4227 32.3379 92.2456 38.1608 86.0737 43.9838C76.9383 52.6088 67.7977 61.239 58.6571 69.864C47.4904 80.4004 36.3237 90.9421 25.1518 101.479C12.8966 113.046 0.641423 124.614 -11.619 136.182C-24.0252 147.89 -36.4315 159.598 -48.8377 171.312C-60.4575 182.275 -72.0773 193.239 -83.6919 204.203C-93.5825 213.541 -103.473 222.874 -113.364 232.208C-120.588 239.025 -127.812 245.843 -135.036 252.661C-138.655 256.078 -142.27 259.489 -145.895 262.906C-146.093 263.093 -146.291 263.281 -146.489 263.473C-146.525 263.499 -146.562 263.531 -146.593 263.567C-148.093 264.661 -149.572 265.749 -151.14 266.744C-152.629 267.697 -154.161 268.51 -155.728 269.317C-158.046 270.338 -160.228 270.973 -162.937 271.057C-163.661 271.078 -164.312 271.067 -165.036 270.989C-166.088 270.874 -166.176 270.843 -167.291 270.614C-168.057 270.458 -168.786 270.197 -169.525 269.958C-169.65 269.921 -169.682 269.911 -169.687 269.916C-169.89 269.828 -170.093 269.739 -170.301 269.65C-170.671 269.494 -171.046 269.338 -171.421 269.176C-173.02 268.203 -174.614 267.244 -176.15 266.166C-176.65 265.817 -177.15 265.468 -177.65 265.119C-177.718 265.072 -178.077 264.791 -177.78 265.036C-177.9 264.937 -178.02 264.838 -178.14 264.734C-179.004 264.02 -179.869 263.307 -180.739 262.588C-180.989 262.38 -181.27 262.364 -181.515 262.458C-181.859 262.562 -182.124 262.864 -182.051 263.218C-182.036 263.359 -181.968 263.499 -181.827 263.624C-180.728 265.119 -179.645 266.598 -178.645 268.161C-177.577 269.828 -176.687 271.541 -175.775 273.301C-175.286 274.536 -174.754 275.791 -174.572 277.114C-174.353 278.703 -174.239 279.661 -174.333 281.38C-174.468 283.854 -175.327 286.546 -176.478 288.869C-177.353 290.359 -178.218 291.822 -179.223 293.234C-179.572 293.723 -179.926 294.213 -180.275 294.703C-180.307 294.749 -180.327 294.781 -180.343 294.801C-180.458 294.932 -180.567 295.062 -180.682 295.197C-181.39 296.031 -182.103 296.864 -182.812 297.697C-183.036 297.958 -183.041 298.27 -182.926 298.52C-182.926 298.525 -182.921 298.531 -182.921 298.541C-182.916 298.546 -182.916 298.551 -182.911 298.562C-182.78 298.864 -182.489 299.083 -182.161 299.005C-182.03 298.984 -181.9 298.921 -181.78 298.791C-178.791 296.619 -175.775 294.718 -172.52 292.984C-170.249 291.999 -168.067 291.374 -165.432 291.301C-164.708 291.275 -164.051 291.286 -163.333 291.364C-162.275 291.484 -162.166 291.515 -161.036 291.739C-159.353 292.078 -158.452 292.536 -156.947 293.176C-155.343 294.15 -153.754 295.114 -152.218 296.187C-151.718 296.541 -151.218 296.885 -150.718 297.234C-150.655 297.281 -150.291 297.567 -150.588 297.317C-150.468 297.416 -150.348 297.52 -150.228 297.619C-149.364 298.333 -148.499 299.051 -147.635 299.77C-147.385 299.973 -147.098 299.989 -146.853 299.895C-146.515 299.791 -146.244 299.489 -146.322 299.135C-146.338 298.994 -146.405 298.854 -146.541 298.729C-147.64 297.234 -148.723 295.755 -149.723 294.192C-150.786 292.536 -151.671 290.833 -152.577 289.083C-153.036 287.828 -153.525 286.562 -153.749 285.239C-154.01 283.656 -154.161 282.697 -154.02 280.973C-153.9 279.52 -153.692 278.229 -153.202 276.562C-153.15 276.39 -153.098 276.213 -153.046 276.036C-153.145 276.374 -152.989 275.885 -152.963 275.822C-152.765 275.364 -152.572 274.906 -152.374 274.442C-152.234 274.104 -152.051 273.781 -151.869 273.458C-150.984 271.984 -150.098 270.525 -149.114 269.119C-148.775 268.63 -148.432 268.14 -148.093 267.65C-148.057 267.598 -148.036 267.567 -148.02 267.546C-147.911 267.416 -147.796 267.286 -147.687 267.156C-146.978 266.322 -146.27 265.489 -145.562 264.656C-143.296 262.515 -141.03 260.38 -138.765 258.239C-132.593 252.416 -126.421 246.588 -120.249 240.765C-111.109 232.14 -101.968 223.515 -92.8273 214.89C-81.6607 204.354 -70.494 193.812 -59.3273 183.27C-47.0721 171.703 -34.8117 160.135 -22.5565 148.567C-10.1502 136.859 2.25601 125.15 14.6675 113.437C26.282 102.473 37.9018 91.5098 49.5216 80.5411C59.4123 71.2077 69.3029 61.8744 79.1935 52.541C86.4175 45.7233 93.6362 38.9056 100.865 32.0879C103.313 29.7754 105.761 27.4629 108.214 25.1504C108.225 25.14 108.235 25.1348 108.246 25.1244C108.475 24.9056 108.709 24.6869 108.938 24.4629C109.199 24.2181 109.464 23.9733 109.725 23.7233C115.97 17.8952 122.662 12.8692 130.74 9.16604C131.475 8.8275 132.214 8.48896 132.954 8.15042C133.24 8.02021 133.527 7.89 133.813 7.75979C133.876 7.72854 133.938 7.7025 134.001 7.67125C134.006 7.67125 134.006 7.67125 134.011 7.66604C135.319 7.16084 136.621 6.66084 137.928 6.15563C139.944 5.37959 142.048 4.77021 144.141 4.23375C146.475 3.64 148.808 3.12438 151.162 2.61917C152.423 2.34833 153.756 2.25979 155.042 2.0775C155.214 2.05667 155.397 2.03063 155.574 2.00458C155.147 2.06708 155.714 1.99938 155.798 1.98896C156.615 1.90563 157.428 1.8275 158.246 1.74417C162.985 1.27021 167.761 1.49937 172.501 1.85354C172.751 1.87438 173.006 1.89 173.251 1.91083C173.303 1.91604 173.318 1.91604 173.324 1.91604C173.334 1.91604 173.339 1.91604 173.355 1.91604C174.11 2.02021 174.865 2.12438 175.615 2.22854C176.636 2.36917 177.657 2.50979 178.673 2.7025C181.235 3.18688 183.725 3.77021 186.251 4.41604C188.36 4.9525 190.433 5.68167 192.464 6.46292C194.761 7.34833 196.548 7.90563 198.928 9.14521C202.975 11.2494 207.167 13.364 210.803 16.14C213.188 17.9629 214.652 19.1192 216.933 20.989C218.537 22.3067 220.011 23.8223 221.454 25.3171C223.261 27.1869 224.954 29.0983 226.652 31.0723C226.683 31.1192 226.709 31.1452 226.725 31.1608C226.876 31.364 227.022 31.5671 227.178 31.765C227.688 32.4629 228.204 33.1608 228.72 33.8588C229.334 34.6817 229.907 35.5254 230.485 36.3744C233.193 40.3379 235.464 44.541 237.412 48.916C237.636 49.4108 237.855 49.9056 238.074 50.4004C237.907 50.0254 238.126 50.5358 238.157 50.6192C238.303 50.9942 238.449 51.3692 238.595 51.7494C238.985 52.765 239.433 53.7754 239.756 54.8223C240.548 57.3483 241.261 59.8483 241.923 62.4108C242.438 64.4213 242.85 66.4785 243.136 68.5358C243.246 69.3223 243.355 70.114 243.464 70.9004C243.506 71.1817 243.542 71.4577 243.584 71.739C243.584 71.7546 243.589 71.7702 243.589 71.7858C243.589 71.7963 243.595 71.8327 243.6 71.9213C243.72 73.3275 243.839 74.739 243.964 76.1452C244.157 78.3327 244.089 80.5827 244.032 82.7806C244.006 83.8431 244.006 84.9004 243.912 85.9577C243.845 86.7442 243.777 87.5306 243.704 88.3171C243.673 88.6504 243.647 88.9838 243.615 89.3223C243.6 89.5046 243.563 89.8796 243.6 89.5827C242.975 94.1504 242.23 98.7129 240.85 103.124C240.058 105.656 239.214 108.104 238.256 110.572C238.193 110.749 238.121 110.921 238.058 111.098C238.048 111.114 238.011 111.197 237.959 111.322C237.636 112.046 237.308 112.775 236.985 113.505C236.563 114.442 236.147 115.359 235.667 116.27C233.443 120.531 230.996 124.567 228.1 128.406C227.662 128.989 227.22 129.572 226.777 130.156C226.73 130.223 226.683 130.275 226.662 130.312C226.49 130.505 226.324 130.703 226.157 130.9C225.36 131.828 224.61 132.807 223.766 133.687C222.032 135.515 220.292 137.301 218.464 139.036C217.167 140.265 215.792 141.385 214.417 142.525C214.308 142.624 214.193 142.718 214.084 142.807C214.063 142.822 214.048 142.838 214.042 142.843C213.641 143.145 213.24 143.447 212.839 143.749C212.063 144.333 211.287 144.916 210.511 145.499C210.506 145.505 210.501 145.505 210.501 145.51C210.454 145.536 210.407 145.572 210.355 145.614C208.089 147.755 205.829 149.895 203.563 152.031C197.386 157.859 191.214 163.682 185.042 169.51C175.902 178.13 166.766 186.76 157.626 195.385C146.459 205.921 135.292 216.463 124.121 226.999C111.865 238.567 99.6102 250.135 87.355 261.703C74.9435 273.411 62.5373 285.124 50.131 296.833C38.5112 307.796 26.8914 318.765 15.2768 329.729C5.38622 339.062 -4.50962 348.395 -14.395 357.734C-21.619 364.546 -28.843 371.364 -36.0669 378.187C-39.6919 381.598 -43.3065 385.015 -46.9263 388.427C-47.1659 388.656 -47.4107 388.89 -47.6555 389.114C-54.8846 394.843 -61.4471 401.536 -66.3221 409.416C-71.3325 417.52 -75.2284 426.177 -77.2492 435.525C-79.2805 444.906 -79.6398 454.447 -78.4419 463.963C-77.8534 468.671 -76.6919 473.275 -75.2805 477.796C-73.8742 482.302 -71.9211 486.562 -69.8586 490.796C-67.8534 494.911 -65.0721 498.656 -62.4002 502.343C-61.0461 504.208 -59.4471 505.942 -57.9055 507.65C-56.3846 509.338 -54.8117 510.989 -53.1034 512.494C-46.0825 518.682 -38.3742 524.015 -29.6346 527.505C-25.2232 529.27 -20.7752 530.848 -16.119 531.848C-11.4471 532.854 -6.73358 533.541 -1.95753 533.723C2.83413 533.9 7.58413 533.723 12.3393 533.119C17.0685 532.52 21.6831 531.364 26.2404 530.005C35.2977 527.307 43.4279 522.494 51.0268 516.999C53.5373 515.187 55.7873 512.994 58.0477 510.89C60.3289 508.734 62.6102 506.578 64.8966 504.416C71.1154 498.536 77.3289 492.656 83.5477 486.775C92.756 478.067 101.964 469.359 111.173 460.65C122.423 450.01 133.678 439.364 144.928 428.723C157.287 417.036 169.636 405.354 181.996 393.671C194.501 381.838 207.011 370.01 219.522 358.177C231.24 347.088 242.97 336.005 254.688 324.921C264.678 315.473 274.657 306.031 284.647 296.583C291.954 289.671 299.266 282.76 306.574 275.848C310.256 272.364 313.943 268.88 317.636 265.39C317.845 265.187 318.058 264.984 318.277 264.781C318.313 264.749 318.355 264.718 318.386 264.676C319.881 263.583 321.365 262.499 322.928 261.499C324.423 260.551 325.949 259.739 327.516 258.932C329.902 257.885 332.121 257.265 334.933 257.187C338.027 257.098 340.516 257.848 343.209 259.067C344.881 260.057 346.522 261.031 348.11 262.14C348.584 262.473 349.058 262.807 349.532 263.135C349.579 263.171 349.605 263.192 349.631 263.203C349.761 263.312 349.886 263.426 350.022 263.536C350.85 264.244 351.688 264.953 352.522 265.661C352.813 265.9 353.147 265.89 353.407 265.744C353.704 265.614 353.917 265.322 353.829 264.999C353.808 264.864 353.735 264.734 353.605 264.609C352.485 263.119 351.376 261.656 350.402 260.057C349.381 258.39 348.48 256.682 347.568 254.958C346.459 252.109 345.964 249.697 346.121 246.864C346.256 244.39 347.115 241.697 348.266 239.374C349.1 237.947 349.923 236.531 350.886 235.182C351.256 234.671 351.626 234.156 351.99 233.64C352.037 233.578 352.334 233.203 352.084 233.499C352.183 233.38 352.287 233.26 352.386 233.14C353.126 232.286 353.845 231.416 354.558 230.557Z" fill="#FAA307"/>
</svg>
