<svg width="92" height="105" viewBox="0 0 92 105" fill="none" xmlns="http://www.w3.org/2000/svg">
<path d="M36.952 43.8281C33.9882 43.8281 31.6532 46.4255 31.6532 49.5972C31.6532 52.7578 34.0429 55.3662 36.952 55.3662C39.9103 55.3662 42.2453 52.7578 42.2453 49.5972C42.3055 46.4201 39.9103 43.8281 36.952 43.8281ZM55.9161 43.8281C52.9523 43.8281 50.6173 46.4255 50.6173 49.5972C50.6173 52.7578 53.0069 55.3662 55.9161 55.3662C58.8744 55.3662 61.2094 52.7578 61.2094 49.5972C61.2039 46.4201 58.8744 43.8281 55.9161 43.8281Z" fill="white"/>
<path d="M81.1632 0.240234H11.5462C10.1445 0.24382 8.75718 0.523467 7.4635 1.06321C6.16983 1.60295 4.99513 2.39221 4.00649 3.38594C3.01784 4.37966 2.2346 5.55839 1.7015 6.85481C1.16839 8.15123 0.895854 9.53996 0.899449 10.9417V81.1766C0.899449 87.0988 5.67875 91.8781 11.5462 91.8781H70.4563L67.6948 82.2594L74.3497 88.444L80.6328 94.2623L91.81 104.138V10.9417C91.8136 9.53996 91.5411 8.15123 91.008 6.85481C90.4749 5.55839 89.6916 4.37966 88.703 3.38594C87.7143 2.39221 86.5396 1.60295 85.246 1.06321C83.9523 0.523467 82.565 0.24382 81.1632 0.240234ZM61.1055 68.0855C61.1055 68.0855 59.2353 65.8544 57.6823 63.8694C64.4849 61.9446 67.0824 57.6903 67.0824 57.6903C64.9497 59.0901 62.9264 60.0854 61.1055 60.7634C54.4762 63.5379 47.1757 64.295 40.1181 62.9398C37.5103 62.4276 34.955 61.6771 32.4844 60.6978C31.1814 60.2028 29.915 59.6163 28.6948 58.9425C28.5363 58.8277 28.3832 58.7839 28.23 58.68C28.1481 58.6411 28.0754 58.5851 28.0168 58.516C27.0817 58.0019 26.5622 57.641 26.5622 57.641C26.5622 57.641 29.0558 61.797 35.656 63.771C34.0975 65.7396 32.1727 68.0855 32.1727 68.0855C20.6947 67.7191 16.3365 60.1893 16.3365 60.1893C16.3365 43.4617 23.8171 29.9058 23.8171 29.9058C31.2978 24.2898 38.412 24.4484 38.412 24.4484L38.9315 25.0718C29.5807 27.7786 25.2662 31.8799 25.2662 31.8799C25.2662 31.8799 26.4146 31.2565 28.3339 30.3761C33.8897 27.9372 38.3027 27.2591 40.1236 27.1006C40.4353 27.0513 40.6978 26.9967 41.0095 26.9967C50.0169 25.7828 59.1761 27.4946 67.137 31.8799C67.137 31.8799 63.0303 27.9864 54.199 25.2851L54.9263 24.4539C54.9263 24.4539 62.046 24.2953 69.5212 29.9113C69.5212 29.9113 77.0019 43.4672 77.0019 60.1947C77.0019 60.1893 72.5889 67.7191 61.1055 68.0855Z" fill="white"/>
</svg>
