<svg width="92" height="92" viewBox="0 0 92 92" fill="none" xmlns="http://www.w3.org/2000/svg">
<path d="M91.5173 27.5319C91.4664 23.7148 90.7506 19.9356 89.402 16.3634C88.2326 13.3503 86.4464 10.6138 84.1576 8.32885C81.8689 6.0439 79.1279 4.26071 76.1097 3.0932C72.5776 1.76949 68.846 1.05374 65.074 0.976416C60.2175 0.759699 58.6778 0.699219 46.3497 0.699219C34.0216 0.699219 32.4415 0.699219 27.6203 0.976416C23.85 1.0543 20.1202 1.77005 16.5897 3.0932C13.5711 4.25989 10.8296 6.0428 8.54076 8.32786C6.2519 10.6129 4.46602 13.3498 3.29738 16.3634C1.96881 19.887 1.25342 23.6114 1.18212 27.3757C0.965043 32.2292 0.899414 33.7664 0.899414 46.0739C0.899414 58.3815 0.899414 59.9539 1.18212 64.7721C1.25785 68.542 1.96966 72.2615 3.29738 75.7945C4.46798 78.8072 6.25519 81.543 8.54482 83.8271C10.8344 86.1112 13.5761 87.8933 16.5947 89.0597C20.1156 90.4366 23.846 91.2036 27.6254 91.3277C32.4869 91.5444 34.0267 91.6099 46.3548 91.6099C58.6828 91.6099 60.263 91.6099 65.0841 91.3277C68.856 91.2535 72.5878 90.5394 76.1198 89.2159C79.1372 88.0471 81.8775 86.2634 84.1661 83.9786C86.4547 81.6938 88.2413 78.9581 89.4121 75.9457C90.7398 72.4177 91.4516 68.6983 91.5274 64.9233C91.7445 60.0749 91.8101 58.5377 91.8101 46.2251C91.8 33.9175 91.8 32.3552 91.5173 27.5319ZM46.3194 69.3484C33.4259 69.3484 22.9809 58.9208 22.9809 46.0487C22.9809 33.1767 33.4259 22.749 46.3194 22.749C52.5092 22.749 58.4454 25.2038 62.8222 29.5733C67.1991 33.9429 69.6579 39.8693 69.6579 46.0487C69.6579 52.2282 67.1991 58.1546 62.8222 62.5241C58.4454 66.8936 52.5092 69.3484 46.3194 69.3484ZM70.5868 27.3202C69.872 27.3209 69.164 27.1808 68.5034 26.908C67.8429 26.6352 67.2427 26.2351 66.7372 25.7304C66.2317 25.2258 65.8309 24.6266 65.5576 23.9671C65.2843 23.3076 65.144 22.6008 65.1447 21.8872C65.1447 21.174 65.2854 20.4679 65.5588 19.809C65.8321 19.1501 66.2328 18.5515 66.7379 18.0472C67.243 17.5429 67.8427 17.1429 68.5027 16.87C69.1626 16.5971 69.87 16.4566 70.5843 16.4566C71.2986 16.4566 72.006 16.5971 72.6659 16.87C73.3259 17.1429 73.9256 17.5429 74.4307 18.0472C74.9358 18.5515 75.3365 19.1501 75.6098 19.809C75.8832 20.4679 76.0239 21.174 76.0239 21.8872C76.0239 24.891 73.5906 27.3202 70.5868 27.3202Z" fill="white"/>
<path d="M46.3194 61.1837C54.6922 61.1837 61.4796 54.4075 61.4796 46.0487C61.4796 37.6899 54.6922 30.9137 46.3194 30.9137C37.9467 30.9137 31.1592 37.6899 31.1592 46.0487C31.1592 54.4075 37.9467 61.1837 46.3194 61.1837Z" fill="white"/>
</svg>
