<svg width="538" height="534" viewBox="0 0 538 534" fill="none" xmlns="http://www.w3.org/2000/svg">
<path d="M537.558 230.557C537.777 230.296 537.782 229.994 537.678 229.749C537.563 229.416 537.261 229.166 536.917 229.244C536.777 229.265 536.636 229.333 536.516 229.473C535.001 230.598 533.511 231.703 531.917 232.703C530.641 233.499 529.339 234.208 528.016 234.911C527.813 235.005 527.615 235.104 527.412 235.203C527.178 235.312 526.949 235.426 526.72 235.536C526.662 235.567 526.214 235.739 526.548 235.63C525.876 235.854 525.214 236.109 524.527 236.286C524.11 236.39 523.693 236.499 523.277 236.604C523.115 236.645 522.954 236.692 522.787 236.729C523.147 236.64 522.652 236.744 522.579 236.755C521.813 236.843 521.063 236.932 520.292 236.932C519.6 236.932 518.912 236.926 518.214 236.869C517.121 236.77 516.99 236.744 515.839 236.515C515.068 236.359 514.334 236.098 513.589 235.859C513.506 235.833 513.464 235.817 513.443 235.817C513.246 235.718 513.042 235.624 512.834 235.531C512.475 235.359 512.11 235.192 511.751 235.02C510.157 234.093 508.584 233.203 507.084 232.135C506.568 231.765 506.053 231.4 505.537 231.031C505.475 230.984 505.095 230.687 505.397 230.937C505.272 230.838 505.157 230.739 505.032 230.635C504.167 229.921 503.303 229.203 502.438 228.489C502.178 228.27 501.881 228.265 501.631 228.369C501.298 228.484 501.048 228.786 501.126 229.13C501.147 229.27 501.214 229.411 501.355 229.531C502.48 231.041 503.584 232.525 504.589 234.124C505.605 235.744 506.485 237.411 507.376 239.109C508.397 241.999 509.058 244.484 508.818 247.343C508.72 248.437 508.699 248.572 508.501 249.718C508.371 250.463 508.147 251.176 507.943 251.9C507.923 251.958 507.766 252.421 507.912 252.093C507.834 252.26 507.766 252.421 507.688 252.588C507.511 252.999 507.329 253.411 507.152 253.828C506.97 254.234 506.751 254.63 506.527 255.02C505.699 256.374 504.865 257.718 503.949 259.02C503.605 259.52 503.256 260.02 502.902 260.52C502.855 260.583 502.574 260.942 502.818 260.645C502.72 260.765 502.615 260.89 502.522 261.01C501.803 261.869 501.084 262.734 500.365 263.598C498.084 265.76 495.798 267.911 493.516 270.072C487.303 275.953 481.084 281.833 474.865 287.713C465.657 296.421 456.449 305.13 447.24 313.838C435.985 324.479 424.735 335.124 413.48 345.77C401.131 357.453 388.772 369.14 376.417 380.817C363.907 392.65 351.397 404.484 338.886 416.312C327.167 427.4 315.449 438.484 303.725 449.567C293.74 459.015 283.751 468.463 273.761 477.906C266.454 484.817 259.147 491.729 251.834 498.64C248.152 502.13 244.464 505.614 240.777 509.098C240.516 509.348 240.261 509.593 240.001 509.838C238.24 511.479 236.49 513.083 234.636 514.604C234.199 514.963 233.761 515.317 233.329 515.677C233.345 515.666 233.266 515.723 233.136 515.822C232.834 516.041 232.527 516.26 232.225 516.479C231.313 517.135 230.428 517.822 229.49 518.437C225.584 520.999 221.584 523.473 217.282 525.333C216.548 525.651 215.808 525.968 215.069 526.286C214.782 526.411 214.501 526.531 214.209 526.656C214.167 526.677 214.126 526.692 214.079 526.713C214.069 526.718 214.048 526.723 214.016 526.739C212.688 527.229 211.365 527.713 210.048 528.197C208.016 528.942 205.871 529.473 203.772 529.984C202.73 530.234 201.694 530.515 200.636 530.718C199.876 530.864 199.11 531.005 198.35 531.151C198.001 531.213 197.647 531.281 197.298 531.348C197.199 531.369 196.506 531.484 196.944 531.427C194.511 531.734 192.115 532.01 189.667 532.166C184.897 532.458 180.162 532.265 175.412 531.791C175.162 531.765 174.912 531.744 174.662 531.718C174.641 531.718 174.631 531.718 174.621 531.713C174.605 531.713 174.584 531.708 174.558 531.703C173.819 531.593 173.074 531.479 172.334 531.369C171.313 531.208 170.308 531.057 169.303 530.843C166.761 530.291 164.277 529.666 161.772 528.989C159.683 528.416 157.631 527.604 155.621 526.802C154.923 526.52 154.22 526.239 153.516 525.958C153.438 525.927 152.917 525.703 153.298 525.874C153.089 525.781 152.881 525.687 152.667 525.593C151.527 525.072 150.319 524.624 149.209 524.031C145.157 521.864 141.157 519.609 137.501 516.812C136.397 515.968 135.298 515.124 134.194 514.281C134.339 514.395 134.256 514.322 134.084 514.177C133.85 513.968 133.615 513.765 133.386 513.562C132.746 512.994 132.105 512.432 131.47 511.869C129.907 510.494 128.386 509.041 126.99 507.494C125.251 505.567 123.589 503.604 121.933 501.598C121.907 501.567 121.891 501.546 121.876 501.531C121.871 501.525 121.871 501.52 121.865 501.51C121.714 501.307 121.569 501.104 121.423 500.9C120.917 500.203 120.412 499.505 119.907 498.812C119.303 497.979 118.746 497.13 118.178 496.27C115.537 492.255 113.391 488.041 111.485 483.64C111.272 483.145 111.058 482.645 110.845 482.156C111.006 482.536 110.803 482.015 110.772 481.932C110.636 481.552 110.501 481.171 110.371 480.791C110.001 479.755 109.605 478.723 109.277 477.677C108.485 475.15 107.803 472.671 107.204 470.093C106.97 469.067 106.787 468.025 106.589 466.994C106.47 466.364 106.35 465.729 106.23 465.098C106.225 465.067 106.22 465.046 106.214 465.036C106.214 465.025 106.214 465.015 106.209 464.999C106.167 464.656 106.126 464.312 106.084 463.973C105.761 461.427 105.558 458.916 105.402 456.359C105.261 454.156 105.329 451.921 105.438 449.718C105.49 448.661 105.527 447.604 105.631 446.546C105.709 445.76 105.787 444.973 105.871 444.187C105.902 443.854 105.933 443.515 105.97 443.182C105.985 443.01 106.027 442.671 105.996 442.869C106.694 438.317 107.522 433.822 108.97 429.437C109.798 426.927 110.673 424.494 111.657 422.041C111.74 421.838 111.819 421.635 111.902 421.432C111.829 421.609 111.876 421.505 111.97 421.296C112.319 420.583 112.662 419.864 113.006 419.145C113.454 418.218 113.902 417.302 114.386 416.4C115.595 414.145 116.881 411.984 118.23 409.807C118.845 408.802 119.558 407.848 120.22 406.88C120.376 406.645 120.537 406.416 120.694 406.182C120.746 406.109 120.766 406.078 120.772 406.067C121.209 405.505 121.647 404.947 122.089 404.385C125.037 400.614 128.35 397.213 131.855 393.953C133.303 392.604 134.876 391.411 136.428 390.182C138.694 388.046 140.959 385.906 143.225 383.765C149.397 377.942 155.569 372.119 161.74 366.291C170.881 357.666 180.022 349.041 189.162 340.416C200.329 329.874 211.496 319.338 222.662 308.796C234.923 297.229 247.178 285.661 259.433 274.093C271.839 262.385 284.251 250.676 296.652 238.968C308.272 228.005 319.891 217.036 331.511 206.072C341.402 196.739 351.292 187.4 361.183 178.072C368.407 171.249 375.631 164.432 382.855 157.614C386.475 154.203 390.095 150.786 393.709 147.369C393.949 147.145 394.183 146.921 394.423 146.697C398.063 143.963 401.735 141.192 404.876 137.88C408.089 134.494 411.251 131.046 413.886 127.182C419.261 119.328 423.449 110.812 425.845 101.578C428.272 92.2494 429.058 82.765 428.225 73.166C427.813 68.416 426.839 63.791 425.657 59.1765C424.48 54.5827 422.652 50.2285 420.72 45.9056C418.839 41.6921 416.282 37.791 413.688 33.989C411.11 30.2233 408.079 26.666 404.798 23.4994C401.49 20.3171 398.032 17.0879 394.183 14.5619C390.298 12.015 386.329 9.41604 382.042 7.56709C377.673 5.67646 373.287 3.89521 368.657 2.71292C364.022 1.52542 359.329 0.640001 354.553 0.280626C349.766 -0.0787485 344.996 -0.130832 340.214 0.348335C335.438 0.822293 330.819 1.74417 326.167 2.93167C317.032 5.27542 308.506 9.7025 300.813 15.0619C298.657 16.5619 296.626 18.2025 294.667 19.9213C294.574 19.9525 294.48 20.0098 294.391 20.0931C293.756 20.6921 293.121 21.2963 292.485 21.8952C291.865 22.4681 291.256 23.041 290.652 23.6244C289.631 24.5879 288.61 25.5463 287.589 26.5098C281.423 32.3379 275.246 38.1608 269.074 43.9838C259.938 52.6088 250.798 61.239 241.657 69.864C230.49 80.4004 219.324 90.9421 208.152 101.479C195.897 113.046 183.641 124.614 171.381 136.182C158.975 147.89 146.569 159.598 134.162 171.312C122.542 182.275 110.923 193.239 99.3081 204.203C89.4175 213.541 79.5268 222.874 69.6362 232.208C62.4122 239.025 55.1883 245.843 47.9643 252.661C44.3445 256.078 40.73 259.489 37.105 262.906C36.907 263.093 36.7091 263.281 36.5112 263.473C36.4747 263.499 36.4383 263.531 36.407 263.567C34.907 264.661 33.4279 265.749 31.8602 266.744C30.3706 267.697 28.8393 268.51 27.2716 269.317C24.9539 270.338 22.7716 270.973 20.0633 271.057C19.3393 271.078 18.6883 271.067 17.9643 270.989C16.9122 270.874 16.8237 270.843 15.7091 270.614C14.9435 270.458 14.2143 270.197 13.4747 269.958C13.3497 269.921 13.3185 269.911 13.3133 269.916C13.1102 269.828 12.907 269.739 12.6987 269.65C12.3289 269.494 11.9539 269.338 11.5789 269.176C9.97996 268.203 8.38621 267.244 6.84975 266.166C6.34975 265.817 5.84975 265.468 5.34975 265.119C5.28204 265.072 4.92266 264.791 5.21954 265.036C5.09975 264.937 4.97996 264.838 4.86016 264.734C3.99558 264.02 3.131 263.307 2.26121 262.588C2.01121 262.38 1.72996 262.364 1.48516 262.458C1.14141 262.562 0.87579 262.864 0.948706 263.218C0.964331 263.359 1.03204 263.499 1.17266 263.624C2.27162 265.119 3.35496 266.598 4.35496 268.161C5.42267 269.828 6.31329 271.541 7.22475 273.301C7.71433 274.536 8.24558 275.791 8.42787 277.114C8.64662 278.703 8.76121 279.661 8.66746 281.38C8.53204 283.854 7.67267 286.546 6.52162 288.869C5.64662 290.359 4.78204 291.822 3.77683 293.234C3.42787 293.723 3.07371 294.213 2.72475 294.703C2.6935 294.749 2.67266 294.781 2.65704 294.801C2.54246 294.932 2.43308 295.062 2.3185 295.197C1.61016 296.031 0.896623 296.864 0.188289 297.697C-0.035668 297.958 -0.0408766 298.27 0.073706 298.52C0.073706 298.525 0.0789144 298.531 0.0789144 298.541C0.0841237 298.546 0.084123 298.551 0.089331 298.562C0.219539 298.864 0.511206 299.083 0.839331 299.005C0.969539 298.984 1.09975 298.921 1.21954 298.791C4.20912 296.619 7.22475 294.718 10.48 292.984C12.7508 291.999 14.9331 291.374 17.5685 291.301C18.2925 291.275 18.9487 291.286 19.6675 291.364C20.7247 291.484 20.8341 291.515 21.9643 291.739C23.6466 292.078 24.5477 292.536 26.0529 293.176C27.657 294.15 29.2456 295.114 30.782 296.187C31.282 296.541 31.782 296.885 32.282 297.234C32.3445 297.281 32.7091 297.567 32.4122 297.317C32.532 297.416 32.6518 297.52 32.7716 297.619C33.6362 298.333 34.5008 299.051 35.3654 299.77C35.6154 299.973 35.9018 299.989 36.1466 299.895C36.4852 299.791 36.756 299.489 36.6779 299.135C36.6622 298.994 36.5945 298.854 36.4591 298.729C35.3602 297.234 34.2768 295.755 33.2768 294.192C32.2143 292.536 31.3289 290.833 30.4227 289.083C29.9643 287.828 29.4747 286.562 29.2508 285.239C28.9904 283.656 28.8393 282.697 28.98 280.973C29.0997 279.52 29.3081 278.229 29.7977 276.562C29.8497 276.39 29.9018 276.213 29.9539 276.036C29.855 276.374 30.0112 275.885 30.0372 275.822C30.2352 275.364 30.4279 274.906 30.6258 274.442C30.7664 274.104 30.9487 273.781 31.131 273.458C32.0164 271.984 32.9018 270.525 33.8862 269.119C34.2247 268.63 34.5685 268.14 34.907 267.65C34.9435 267.598 34.9643 267.567 34.98 267.546C35.0893 267.416 35.2039 267.286 35.3133 267.156C36.0216 266.322 36.73 265.489 37.4383 264.656C39.7039 262.515 41.9695 260.38 44.2352 258.239C50.407 252.416 56.5789 246.588 62.7508 240.765C71.8914 232.14 81.032 223.515 90.1727 214.89C101.339 204.354 112.506 193.812 123.673 183.27C135.928 171.703 148.188 160.135 160.444 148.567C172.85 136.859 185.256 125.15 197.667 113.437C209.282 102.473 220.902 91.5098 232.522 80.5411C242.412 71.2077 252.303 61.8744 262.194 52.541C269.417 45.7233 276.636 38.9056 283.865 32.0879C286.313 29.7754 288.761 27.4629 291.214 25.1504C291.225 25.14 291.235 25.1348 291.246 25.1244C291.475 24.9056 291.709 24.6869 291.938 24.4629C292.199 24.2181 292.464 23.9733 292.725 23.7233C298.97 17.8952 305.662 12.8692 313.74 9.16604C314.475 8.8275 315.214 8.48896 315.954 8.15042C316.24 8.02021 316.527 7.89 316.813 7.75979C316.876 7.72854 316.938 7.7025 317.001 7.67125C317.006 7.67125 317.006 7.67125 317.011 7.66604C318.319 7.16084 319.621 6.66084 320.928 6.15563C322.944 5.37959 325.048 4.77021 327.141 4.23375C329.475 3.64 331.808 3.12438 334.162 2.61917C335.423 2.34833 336.756 2.25979 338.042 2.0775C338.214 2.05667 338.397 2.03063 338.574 2.00458C338.147 2.06708 338.714 1.99938 338.798 1.98896C339.615 1.90563 340.428 1.8275 341.246 1.74417C345.985 1.27021 350.761 1.49937 355.501 1.85354C355.751 1.87437 356.006 1.89 356.251 1.91083C356.303 1.91604 356.318 1.91604 356.324 1.91604C356.334 1.91604 356.339 1.91604 356.355 1.91604C357.11 2.02021 357.865 2.12438 358.615 2.22854C359.636 2.36917 360.657 2.50979 361.673 2.7025C364.235 3.18688 366.725 3.77021 369.251 4.41604C371.36 4.9525 373.433 5.68167 375.464 6.46292C377.761 7.34833 379.548 7.90563 381.928 9.14521C385.975 11.2494 390.167 13.364 393.803 16.14C396.188 17.9629 397.652 19.1192 399.933 20.989C401.537 22.3067 403.011 23.8223 404.454 25.3171C406.261 27.1869 407.954 29.0983 409.652 31.0723C409.683 31.1192 409.709 31.1452 409.725 31.1608C409.876 31.364 410.022 31.5671 410.178 31.765C410.688 32.4629 411.204 33.1608 411.72 33.8588C412.334 34.6817 412.907 35.5254 413.485 36.3744C416.193 40.3379 418.464 44.541 420.412 48.916C420.636 49.4108 420.855 49.9056 421.074 50.4004C420.907 50.0254 421.126 50.5358 421.157 50.6192C421.303 50.9942 421.449 51.3692 421.595 51.7494C421.985 52.765 422.433 53.7754 422.756 54.8223C423.548 57.3483 424.261 59.8483 424.923 62.4108C425.438 64.4213 425.85 66.4785 426.136 68.5358C426.246 69.3223 426.355 70.114 426.464 70.9004C426.506 71.1817 426.542 71.4577 426.584 71.739C426.584 71.7546 426.589 71.7702 426.589 71.7858C426.589 71.7963 426.595 71.8327 426.6 71.9213C426.72 73.3275 426.839 74.739 426.964 76.1452C427.157 78.3327 427.089 80.5827 427.032 82.7806C427.006 83.8431 427.006 84.9004 426.912 85.9577C426.845 86.7442 426.777 87.5306 426.704 88.3171C426.673 88.6504 426.647 88.9838 426.615 89.3223C426.6 89.5046 426.563 89.8796 426.6 89.5827C425.975 94.1504 425.23 98.7129 423.85 103.124C423.058 105.656 422.214 108.104 421.256 110.572C421.193 110.749 421.121 110.921 421.058 111.098C421.048 111.114 421.011 111.197 420.959 111.322C420.636 112.046 420.308 112.775 419.985 113.505C419.563 114.442 419.147 115.359 418.667 116.27C416.443 120.531 413.996 124.567 411.1 128.406C410.662 128.989 410.22 129.572 409.777 130.156C409.73 130.223 409.683 130.275 409.662 130.312C409.49 130.505 409.324 130.703 409.157 130.9C408.36 131.828 407.61 132.807 406.766 133.687C405.032 135.515 403.292 137.301 401.464 139.036C400.167 140.265 398.792 141.385 397.417 142.525C397.308 142.624 397.193 142.718 397.084 142.807C397.063 142.822 397.048 142.838 397.042 142.843C396.641 143.145 396.24 143.447 395.839 143.749C395.063 144.333 394.287 144.916 393.511 145.499C393.506 145.505 393.501 145.505 393.501 145.51C393.454 145.536 393.407 145.572 393.355 145.614C391.089 147.755 388.829 149.895 386.563 152.031C380.386 157.859 374.214 163.682 368.042 169.51C358.902 178.13 349.766 186.76 340.626 195.385C329.459 205.921 318.292 216.463 307.121 226.999C294.865 238.567 282.61 250.135 270.355 261.703C257.944 273.411 245.537 285.124 233.131 296.833C221.511 307.796 209.891 318.765 198.277 329.729C188.386 339.062 178.49 348.395 168.605 357.734C161.381 364.546 154.157 371.364 146.933 378.187C143.308 381.598 139.694 385.015 136.074 388.427C135.834 388.656 135.589 388.89 135.345 389.114C128.115 394.843 121.553 401.536 116.678 409.416C111.667 417.52 107.772 426.177 105.751 435.525C103.72 444.906 103.36 454.447 104.558 463.963C105.147 468.671 106.308 473.275 107.72 477.796C109.126 482.302 111.079 486.562 113.141 490.796C115.147 494.911 117.928 498.656 120.6 502.343C121.954 504.208 123.553 505.942 125.095 507.65C126.615 509.338 128.188 510.989 129.897 512.494C136.917 518.682 144.626 524.015 153.365 527.505C157.777 529.27 162.225 530.848 166.881 531.848C171.553 532.854 176.266 533.541 181.042 533.723C185.834 533.901 190.584 533.723 195.339 533.119C200.069 532.52 204.683 531.364 209.24 530.005C218.298 527.307 226.428 522.494 234.027 516.999C236.537 515.187 238.787 512.994 241.048 510.89C243.329 508.734 245.61 506.578 247.897 504.416C254.115 498.536 260.329 492.656 266.548 486.775C275.756 478.067 284.964 469.359 294.173 460.65C305.423 450.01 316.678 439.364 327.928 428.723C340.287 417.036 352.636 405.354 364.996 393.671C377.501 381.838 390.011 370.01 402.522 358.177C414.24 347.088 425.97 336.005 437.688 324.921C447.678 315.473 457.657 306.031 467.647 296.583C474.954 289.671 482.266 282.76 489.574 275.848C493.256 272.364 496.943 268.88 500.636 265.39C500.845 265.187 501.058 264.984 501.277 264.781C501.313 264.749 501.355 264.718 501.386 264.676C502.881 263.583 504.365 262.499 505.928 261.499C507.423 260.551 508.949 259.739 510.516 258.932C512.902 257.885 515.121 257.265 517.933 257.187C521.027 257.098 523.516 257.848 526.209 259.067C527.881 260.057 529.522 261.031 531.11 262.14C531.584 262.473 532.058 262.807 532.532 263.135C532.579 263.171 532.605 263.192 532.631 263.203C532.761 263.312 532.886 263.426 533.022 263.536C533.85 264.244 534.688 264.953 535.522 265.661C535.813 265.9 536.147 265.89 536.407 265.744C536.704 265.614 536.917 265.322 536.829 264.999C536.808 264.864 536.735 264.734 536.605 264.609C535.485 263.119 534.376 261.656 533.402 260.057C532.381 258.39 531.48 256.682 530.568 254.958C529.459 252.109 528.964 249.697 529.121 246.864C529.256 244.39 530.115 241.697 531.266 239.374C532.1 237.947 532.923 236.531 533.886 235.182C534.256 234.671 534.626 234.156 534.99 233.64C535.037 233.578 535.334 233.203 535.084 233.499C535.183 233.38 535.287 233.26 535.386 233.14C536.126 232.286 536.845 231.416 537.558 230.557Z" fill="#FAA307"/>
</svg>
